<svg height="512pt" viewBox="-2 0 512 512.00066" width="512pt" xmlns="http://www.w3.org/2000/svg"><path d="m506.15625 448.335938-85.535156-106.914063 14.46875-7.234375c3.742187-1.871094 5.257812-6.417969 3.386718-10.160156-1.867187-3.742188-6.417968-5.253906-10.160156-3.386719l-16.070312 8.035156-19.460938-38.917969c-.363281-.730468-.84375-1.394531-1.417968-1.96875l-109.617188-109.617187 39.597656-39.59375c2.957032-2.957031 2.957032-7.75 0-10.707031l-11.78125-11.78125 103.164063-103.164063c2.957031-2.957031 2.957031-7.75 0-10.707031-2.960938-2.957031-7.753907-2.957031-10.710938 0l-6.066406 6.066406-4.40625-4.402344c-2.953125-2.953124-7.75-2.957031-10.707031.003907-2.957032 2.957031-2.957032 7.75 0 10.707031l4.402344 4.402344-131.335938 131.332031-131.335938-131.332031 4.402344-4.402344c2.960938-2.957031 2.960938-7.753906.003906-10.707031-2.957031-2.960938-7.753906-2.957031-10.710937-.003907l-4.402344 4.402344-6.066406-6.066406c-2.960937-2.957031-7.753906-2.957031-10.710937 0-2.957032 2.957031-2.957032 7.75 0 10.707031l103.164062 103.164063-11.78125 11.78125c-2.957031 2.957031-2.957031 7.75 0 10.707031l39.59375 39.59375-109.617188 109.617187c-.574218.578126-1.054687 1.242188-1.417968 1.96875l-19.457032 38.921876-16.074218-8.039063c-3.738282-1.871094-8.289063-.355469-10.160156 3.386719-1.871094 3.742187-.351563 8.289062 3.386718 10.160156l14.46875 7.234375-25.140625 31.421875c-2.613281 3.265625-2.082031 8.03125 1.183594 10.644531 3.222656 2.578125 8.066406 2.039063 10.640625-1.179687l30.992188-38.742188c.328124-.410156.625-.871094.863281-1.34375l22.292969-44.59375 108.75-108.746094 6.421874 6.425782-109.613281 109.617187c-1.421875 1.417969-2.21875 3.34375-2.21875 5.355469v31.128906l-14.914062 14.917969c-.789063.785156-1.394531 1.738281-1.773438 2.789063l-47.773437 132.707031-48.738282-39.875 32.335938-40.417969c2.613281-3.265625 2.082031-8.03125-1.183594-10.644531s-8.03125-2.082031-10.644531 1.183593l-37.011719 46.265626c-2.59375 3.238281-2.09375 7.960937 1.117188 10.589843l62.824218 51.402344c3.984376 3.261719 10.183594 1.535156 11.921876-3.296875l50.828124-141.191406 15.9375-15.9375c1.421876-1.421875 2.21875-3.347656 2.21875-5.355469v-29.210937c12.257813 6.730468 27.898438 4.453124 37.761719-5.414063 10.226563-10.226563 12.25-26.605469 4.714844-38.984375l15.265625-15.265625 24.585938 4.917969c4.152343.832031 8.285156-2.042969 8.960937-6.222656.640625-3.964844-2.054687-7.839844-5.992187-8.628907l-14.683594-2.9375 36.785156-36.785156 36.785156 36.785156-14.679687 2.9375c-3.941407.789063-6.632813 4.664063-5.992188 8.628907.675781 4.183593 4.804688 7.046874 8.960938 6.222656l24.582031-4.917969 15.265625 15.265625c-7.535156 12.378906-5.507813 28.761719 4.714844 38.984375 9.867187 9.867187 25.507812 12.148437 37.761719 5.417969v29.207031c0 2.007813.796874 3.933594 2.21875 5.355469l15.9375 15.9375 50.828124 141.195312c1.742188 4.828125 7.9375 6.554688 11.921876 3.292969l62.824218-51.402344c3.214844-2.628906 3.710938-7.351562 1.121094-10.589843zm-327.714844-160.902344c0 4.449218-1.734375 8.632812-4.878906 11.78125-4.394531 4.394531-11 5.972656-16.914062 4.0625l20.976562-20.980469c.53125 1.640625.816406 3.363281.816406 5.136719zm120.414063-160.636719 6.425781 6.425781-34.238281 34.242188-6.425781-6.425782zm35.398437 172.414063c-4.394531-4.390626-5.976562-11-4.066406-16.914063l20.980469 20.980469c-5.914063 1.914062-12.519531.332031-16.914063-4.066406zm106.660156 192.613281-47.777343-132.707031c-.375-1.046876-.980469-2-1.769531-2.789063l-14.917969-14.914063v-31.132812c0-2.007812-.796875-3.933594-2.214844-5.355469l-39.96875-39.96875c-.003906-.003906-.007813-.007812-.011719-.011719-.003906-.003906-.007812-.007812-.011718-.011718l-131.710938-131.707032 6.425781-6.425781 170.832031 170.828125 22.296876 44.59375c.234374.46875.53125.933594.859374 1.34375l86.703126 108.382813zm0 0"/></svg>