<?xml version="1.0" encoding="iso-8859-1"?>
<!-- Generator: Adobe Illustrator 19.0.0, SVG Export Plug-In . SVG Version: 6.00 Build 0)  -->
<svg version="1.1" id="Layer_1" xmlns="http://www.w3.org/2000/svg" xmlns:xlink="http://www.w3.org/1999/xlink" x="0px" y="0px"
	 viewBox="0 0 496.2 496.2" style="enable-background:new 0 0 496.2 496.2;" xml:space="preserve">
<path style="fill:#FABC3D;" d="M496.2,248.1C496.2,111.1,385.1,0,248.1,0S0,111.1,0,248.1s111.1,248.1,248.1,248.1
	S496.2,385.1,496.2,248.1z"/>
<path style="fill:#990000;" d="M246.2,230.2c0,0,3.4,27.5-8.4,35.7c0,0,11.9,8.4,31-29.4L246.2,230.2z"/>
<g>
	<path style="fill:#202020;" d="M347.6,221.3l15.6-5c14.4-7.5,9.6-13.5,6.3-13.8c-5.8-0.4-12.5-5.6-12.5-5.6
		C355.6,209.5,347.6,221.3,347.6,221.3z"/>
	<path style="fill:#202020;" d="M347.6,221.3c0,0-10,23.8,0,47.5l23.8,58.8c0,0,12.5,35-1.3,37.5l-62.6,7.5c0,0-16.3,1.3-6.3-11.3
		l-33.8-115.1c0,0,0.6-9.4-15-9.4l-40-0.6c0,0-16.3,4.4-16.3,20.6h-47.5c0,0-19.4,7.5-19.4-30c0,0-21.9,1.9-21.9-18.1V174
		c0,0,0-16,21.9-16s45.4,11.3,45.4,11.3h42.9c0,0,7.2-8.8,12.8-8.8s94.2,0,94.2,0s22.5-0.6,32.5,36.3c0,0,0,3.5-2.2,11
		C352.7,215.4,347.6,221.3,347.6,221.3z"/>
	<path style="fill:#202020;" d="M282.9,283.3h-60.1c-1.3,0-2.6-0.5-3.6-1.4l-23.1-21.3c-1.1-1-1.7-2.4-1.7-3.9v-16.6
		c0-3,2.4-5.3,5.3-5.3s5.3,2.4,5.3,5.3v14.2l19.9,18.3h58c3,0,5.3,2.4,5.3,5.3S285.8,283.3,282.9,283.3z"/>
</g>
<g>
</g>
<g>
</g>
<g>
</g>
<g>
</g>
<g>
</g>
<g>
</g>
<g>
</g>
<g>
</g>
<g>
</g>
<g>
</g>
<g>
</g>
<g>
</g>
<g>
</g>
<g>
</g>
<g>
</g>
</svg>
