<?xml version="1.0" encoding="iso-8859-1"?>
<!-- Generator: Adobe Illustrator 19.0.0, SVG Export Plug-In . SVG Version: 6.00 Build 0)  -->
<svg version="1.1" id="Capa_1" xmlns="http://www.w3.org/2000/svg" xmlns:xlink="http://www.w3.org/1999/xlink" x="0px" y="0px"
	 viewBox="0 0 400 400" style="enable-background:new 0 0 400 400;" xml:space="preserve">
<g>
	<g>
		<path style="fill:#C3E05E;" d="M400,318.644C400,363.577,364.02,400,319.633,400H80.365C35.98,400,0,363.577,0,318.644V81.354
			C0,36.423,35.98,0,80.365,0h239.268C364.02,0,400,36.423,400,81.354V318.644z"/>
		<path style="fill:#B4D754;" d="M399.881,318.644V166.4l-88.104-73.852l-158.103,51.845L74.091,309.857L173.699,400h145.814
			C363.898,400,399.881,363.574,399.881,318.644z"/>
		<g>
			<polygon style="fill:#736771;" points="210.44,165.684 206.531,195.659 157.884,195.659 157.884,205.4 205.258,205.4 
				210.44,205.4 215.622,205.4 220.802,165.684 			"/>
			<polygon style="fill:#5D505B;" points="100.562,129.074 82.055,129.074 87.18,101.857 100.562,101.857 			"/>
			<polygon style="fill:#736771;" points="318.991,145.996 87.18,145.996 97.354,112.155 318.991,112.155 			"/>
			<polygon style="fill:#FFFFFF;" points="322.627,112.155 97.354,112.155 101.056,101.857 322.627,101.857 			"/>
			<rect x="318.991" y="118.527" style="fill:#5D505B;" width="19.927" height="27.469"/>
			<rect x="280.688" y="92.549" style="fill:#5D505B;" width="31.09" height="9.308"/>
			<polygon style="fill:#5D505B;" points="256.867,158.239 248.886,158.239 256.867,126.662 264.848,126.662 			"/>
			<polyline style="fill:#5D505B;" points="264.848,158.239 272.828,126.662 280.807,126.662 272.828,158.239 			"/>
			<polyline style="fill:#5D505B;" points="280.807,158.239 288.79,126.662 296.771,126.662 288.79,158.239 			"/>
			<polygon style="fill:#5D505B;" points="125.728,101.857 87.18,101.857 88.857,92.549 125.728,92.549 			"/>
			<rect x="106.468" y="122.597" style="fill:#5D505B;" width="38.522" height="8.134"/>
			<polygon style="fill:#5D505B;" points="154.229,288.628 80.445,288.628 97.229,158.239 171.014,158.239 			"/>
			<polygon style="fill:#736771;" points="147.625,279.764 90.938,279.764 103.834,179.593 160.52,179.593 			"/>
			<path style="fill:#5D505B;" d="M77.613,170.481c0,0,22.949,0,22.949,25.478l34.545-19.749l-9.379-22.216l-48.115,4.245V170.481z"
				/>
			<path style="fill:#5D505B;" d="M135.107,223.434c0-5.244-4.199-9.49-9.379-9.49c-5.178,0-9.375,4.246-9.375,9.49
				s4.197,9.492,9.375,9.492C130.908,232.926,135.107,228.678,135.107,223.434z"/>
			<path style="fill:#5D505B;" d="M131.406,258.903c0-5.239-4.199-9.488-9.379-9.488c-5.178,0-9.375,4.249-9.375,9.488
				c0,5.244,4.197,9.492,9.375,9.492C127.207,268.396,131.406,264.147,131.406,258.903z"/>
			<polygon style="fill:#736771;" points="158.609,299.369 74.091,299.369 80.445,288.628 154.229,288.628 			"/>
			<rect x="74.091" y="299.369" style="fill:#5D505B;" width="84.519" height="10.489"/>
			<path style="fill:#5D505B;" d="M61.083,145.996v24.485h113.569c2.42,6.224,8.377,10.644,15.388,10.644v-5.981
				c-2.778-0.904-5.209-2.55-7.138-4.663h30.175l-3.909,29.975H160.52v9.74h47.375h5.182h5.183l5.182-39.715h95.551v-24.485
				L61.083,145.996L61.083,145.996z"/>
		</g>
		<polygon style="fill:none;" points="206.531,195.659 209.815,170.481 203.085,170.481 203.085,195.659 		"/>
		<polygon style="fill:#5D505B;" points="100.562,103.233 101.056,101.857 100.562,101.857 		"/>
		<path style="opacity:0.28;fill:#534551;enable-background:new    ;" d="M166.197,195.659l3.241-25.177h5.213
			c2.42,6.224,8.377,10.644,15.388,10.644v-5.981c-2.778-0.904-5.209-2.55-7.138-4.663h20.184v-68.625h-77.357v-9.308H88.857
			l-1.678,9.308l-5.125,27.217h10.212l-5.087,16.922H61.082v24.485h16.531c0,0,10.257,0.013,17.058,7.633L80.445,288.628
			l-6.354,10.741v10.489h84.519v-10.489l-4.38-10.741l10.097-78.432h38.759v-14.538L166.197,195.659L166.197,195.659z
			 M100.562,103.233v-1.376h0.494L100.562,103.233z"/>
	</g>
</g>
<g>
</g>
<g>
</g>
<g>
</g>
<g>
</g>
<g>
</g>
<g>
</g>
<g>
</g>
<g>
</g>
<g>
</g>
<g>
</g>
<g>
</g>
<g>
</g>
<g>
</g>
<g>
</g>
<g>
</g>
</svg>
