<?xml version="1.0" encoding="iso-8859-1"?>
<!-- Generator: Adobe Illustrator 19.0.0, SVG Export Plug-In . SVG Version: 6.00 Build 0)  -->
<svg version="1.1" id="Capa_1" xmlns="http://www.w3.org/2000/svg" xmlns:xlink="http://www.w3.org/1999/xlink" x="0px" y="0px"
	 viewBox="0 0 512 512" style="enable-background:new 0 0 512 512;" xml:space="preserve">
<g>
	<g>
		<g>
			<path d="M91.429,210.286c-25.247,0-45.714,20.467-45.714,45.714s20.467,45.714,45.714,45.714s45.714-20.467,45.714-45.714
				C137.113,230.765,116.664,210.315,91.429,210.286z M91.429,283.429C76.28,283.429,64,271.148,64,256
				c0-15.148,12.28-27.429,27.429-27.429s27.429,12.28,27.429,27.429C118.841,271.142,106.57,283.412,91.429,283.429z"/>
			<circle cx="256" cy="256" r="27.429"/>
			<path d="M196.571,358.938c-6.919-4.022-14.778-6.145-22.781-6.152c-4.021,0.004-8.024,0.536-11.906,1.58
				c-21.073,5.641-35.226,25.383-33.803,47.151c1.423,21.768,18.025,39.5,39.653,42.35c21.628,2.85,42.257-9.975,49.271-30.631
				S215.463,369.846,196.571,358.938z M197.469,412.241L197.469,412.241c-3.626,6.31-9.625,10.907-16.661,12.768
				c-2.334,0.627-4.74,0.945-7.156,0.946c-12.399-0.033-23.231-8.385-26.418-20.367c-3.186-11.982,2.068-24.612,12.813-30.799
				c10.745-6.187,24.305-4.391,33.069,4.38C201.879,387.94,203.664,401.501,197.469,412.241z"/>
			<path d="M178.286,390.607c-1.379-0.802-2.945-1.224-4.54-1.223c-0.808,0.003-1.612,0.108-2.393,0.313
				c-2.346,0.621-4.346,2.154-5.554,4.259h-0.004c-2.515,4.369-1.014,9.95,3.353,12.468c4.367,2.518,9.949,1.022,12.471-3.343
				C184.14,398.716,182.649,393.133,178.286,390.607z"/>
			<circle cx="91.429" cy="256" r="9.143"/>
			<path d="M161.884,157.634c21.068,5.647,43.192-4.374,52.841-23.936c9.649-19.562,4.136-43.215-13.168-56.495
				c-17.304-13.28-41.578-12.487-57.978,1.894c-16.4,14.38-20.358,38.343-9.453,57.234
				C140.161,146.854,150.157,154.526,161.884,157.634z M147.232,106.384L147.232,106.384c2.871-10.711,11.91-18.639,22.904-20.089
				s21.779,3.863,27.329,13.464h0.004c4.893,8.477,4.899,18.919,0.016,27.402s-13.915,13.722-23.703,13.75
				c-2.419-0.001-4.828-0.32-7.165-0.946c-7.026-1.878-13.017-6.473-16.653-12.772C146.327,120.894,145.344,113.408,147.232,106.384
				z"/>
			<path d="M315.429,153.063c18.889,10.905,42.85,6.947,57.23-9.452c14.379-16.399,15.171-40.673,1.892-57.974
				c-13.28-17.302-36.932-22.813-56.492-13.163c-19.56,9.65-29.578,31.773-23.929,52.839
				C297.239,137.036,304.908,147.028,315.429,153.063z M314.531,99.759L314.531,99.759c6.206-10.753,18.861-15.997,30.854-12.785
				c11.993,3.212,20.333,14.08,20.332,26.496c0,12.416-8.34,23.283-20.333,26.495c-2.335,0.627-4.743,0.945-7.161,0.946
				c-9.786-0.033-18.813-5.273-23.696-13.754C309.645,118.676,309.646,108.238,314.531,99.759z"/>
			<path d="M333.714,121.393c4.373,2.52,9.961,1.022,12.487-3.348h0.005c1.629-2.823,1.63-6.3,0.005-9.125s-4.633-4.57-7.893-4.58
				c-0.808,0.002-1.612,0.107-2.393,0.313c-3.567,0.959-6.207,3.971-6.69,7.633C328.751,115.947,330.518,119.541,333.714,121.393z"
				/>
			<path d="M171.353,122.304c3.153,0.844,6.517-0.059,8.824-2.368c2.307-2.309,3.208-5.673,2.362-8.826
				c-0.846-3.153-3.309-5.614-6.463-6.458c-0.781-0.205-1.585-0.31-2.393-0.313c-3.257,0.017-6.259,1.763-7.883,4.585
				s-1.626,6.296-0.005,9.12C167.005,120.149,169.006,121.682,171.353,122.304z"/>
			<path d="M350.117,354.366c-3.883-1.045-7.886-1.576-11.906-1.58c-24.166-0.016-44.2,18.719-45.801,42.831
				c-1.601,24.113,15.779,45.332,39.735,48.512c23.956,3.18,46.27-12.771,51.014-36.467
				C387.903,383.967,373.45,360.655,350.117,354.366z M364.768,405.616c-3.198,11.972-14.028,20.31-26.42,20.339
				c-2.417-0.001-4.822-0.32-7.156-0.946c-7.035-1.86-13.033-6.458-16.656-12.768h-0.004c-6.217-10.75-4.436-24.335,4.341-33.12
				c8.777-8.784,22.362-10.576,33.116-4.367S367.986,393.622,364.768,405.616z"/>
			<path d="M420.571,210.286c-25.247,0-45.714,20.467-45.714,45.714s20.467,45.714,45.714,45.714s45.714-20.467,45.714-45.714
				C466.256,230.765,445.806,210.315,420.571,210.286z M420.571,283.429c-15.148,0-27.429-12.28-27.429-27.429
				c0-15.148,12.28-27.429,27.429-27.429C435.72,228.571,448,240.852,448,256C447.983,271.142,435.713,283.412,420.571,283.429z"/>
			<path d="M340.647,389.697L340.647,389.697c-2.339-0.62-4.829-0.293-6.929,0.91c-3.208,1.844-4.986,5.441-4.503,9.109
				s3.132,6.682,6.708,7.632c2.339,0.62,4.829,0.292,6.929-0.911c3.205-1.846,4.98-5.441,4.497-9.108
				C346.867,393.663,344.221,390.65,340.647,389.697z"/>
			<circle cx="420.571" cy="256" r="9.143"/>
			<path d="M501.232,182.42c-23.085-2.588-43.568-15.988-55.188-36.103s-12.995-44.553-3.705-65.844
				c-34.411-36.436-78.709-62.037-127.46-73.661C301.157,25.596,279.262,36.662,256,36.571
				c-23.262,0.091-45.157-10.975-58.879-29.759c-48.751,11.624-93.049,37.224-127.46,73.661c9.292,21.29,7.918,45.729-3.701,65.844
				c-11.619,20.115-32.102,33.515-55.188,36.103c-14.363,48.002-14.363,99.158,0,147.161c23.084,2.59,43.566,15.99,55.185,36.104
				c11.619,20.114,12.993,44.552,3.704,65.842c34.411,36.436,78.709,62.037,127.46,73.661
				c13.783-18.712,35.639-29.759,58.879-29.759s45.097,11.047,58.879,29.759c48.751-11.624,93.049-37.224,127.46-73.661
				c-9.288-21.292-7.913-45.73,3.707-65.846s32.101-33.517,55.186-36.109C515.589,281.571,515.589,230.42,501.232,182.42z
				 M282.857,81.473L282.857,81.473c15.265-26.448,47.088-38.43,76.006-28.618s46.878,38.686,42.896,68.963
				s-28.797,53.525-59.269,55.526s-58.114-17.802-66.021-47.298C272.082,113.647,274.379,96.179,282.857,81.473z M111.897,96.911
				c7.905-29.487,35.539-49.284,66.002-47.283c30.463,2,55.27,25.241,59.252,55.508c3.982,30.268-13.972,59.133-42.881,68.943
				c-28.909,9.81-60.722-2.166-75.985-28.606C109.755,130.789,107.455,113.302,111.897,96.911z M27.429,256
				c0-35.346,28.654-64,64-64c35.346,0,64,28.654,64,64c0,35.346-28.654,64-64,64C56.099,319.959,27.47,291.329,27.429,256z
				 M229.143,430.527c-15.265,26.448-47.087,38.429-76.005,28.617s-46.877-38.686-42.895-68.962
				c3.982-30.276,28.797-53.524,59.269-55.524c30.472-2.001,58.113,17.802,66.02,47.298
				C239.921,398.353,237.623,415.822,229.143,430.527z M210.286,256c0-25.247,20.467-45.714,45.714-45.714
				s45.714,20.467,45.714,45.714S281.247,301.714,256,301.714C230.765,301.685,210.315,281.235,210.286,256z M400.103,415.089
				c-7.905,29.488-35.539,49.285-66.002,47.285c-30.463-2-55.271-25.24-59.253-55.508c-3.982-30.268,13.972-59.134,42.881-68.945
				c28.909-9.811,60.723,2.166,75.986,28.606C402.244,381.211,404.545,398.698,400.103,415.089z M420.571,320
				c-35.346,0-64-28.654-64-64c0-35.346,28.654-64,64-64c35.346,0,64,28.654,64,64C484.53,291.329,455.901,319.959,420.571,320z"/>
		</g>
	</g>
</g>
<g>
</g>
<g>
</g>
<g>
</g>
<g>
</g>
<g>
</g>
<g>
</g>
<g>
</g>
<g>
</g>
<g>
</g>
<g>
</g>
<g>
</g>
<g>
</g>
<g>
</g>
<g>
</g>
<g>
</g>
</svg>
