<svg viewBox="0 0 512 512" xmlns="http://www.w3.org/2000/svg"><path d="m512 256c0 141.386719-114.613281 256-256 256s-256-114.613281-256-256 114.613281-256 256-256 256 114.613281 256 256zm0 0" fill="#ff328e"/><path d="m512 256c0-2.183594-.027344-4.363281-.082031-6.535156l-118.484375-122.5c-34.390625-36.617188-83.238282-59.492188-137.433594-59.492188-104.121094 0-188.527344 84.40625-188.527344 188.527344 0 54.195312 22.875 103.042969 59.492188 137.433594 0 0 70.960937 71.039062 118.246094 118.324218 3.578124.148438 7.171874.242188 10.789062.242188 141.386719 0 256-114.613281 256-256zm0 0" fill="#c50a5b"/><path d="m406.820312 256c0 83.296875-67.523437 150.820312-150.820312 150.820312s-150.820312-67.523437-150.820312-150.820312 67.523437-150.820312 150.820312-150.820312 150.820312 67.523437 150.820312 150.820312zm0 0" fill="#00e8f2"/><path d="m406.820312 256c0 83.300781-67.519531 150.820312-150.820312 150.820312v-301.640624c83.300781 0 150.820312 67.519531 150.820312 150.820312zm0 0" fill="#00b7be"/><path d="m272.296875 256c0 9-7.296875 16.296875-16.296875 16.296875s-16.296875-7.296875-16.296875-16.296875 7.296875-16.296875 16.296875-16.296875 16.296875 7.296875 16.296875 16.296875zm0 0" fill="#fff"/><path d="m272.300781 256c0 9-7.300781 16.300781-16.300781 16.300781v-32.601562c9 0 16.300781 7.300781 16.300781 16.300781zm0 0" fill="#fff5cb"/><path d="m256 67.472656c-104.121094 0-188.527344 84.40625-188.527344 188.527344s84.40625 188.527344 188.527344 188.527344 188.527344-84.40625 188.527344-188.527344-84.40625-188.527344-188.527344-188.527344zm15.863281 329.621094v-58.921875h-31.726562v58.921875c-65.738281-7.308594-117.921875-59.492188-125.230469-125.230469h58.921875v-31.726562h-58.921875c7.308594-65.738281 59.492188-117.921875 125.230469-125.230469v58.921875h31.726562v-58.921875c65.738281 7.308594 117.921875 59.492188 125.230469 125.230469h-58.921875v31.726562h58.921875c-7.308594 65.738281-59.492188 117.921875-125.230469 125.230469zm0 0" fill="#fff"/><path d="m256 67.46875v106.359375h15.859375v-58.917969c65.742187 7.308594 117.921875 59.488282 125.230469 125.230469h-58.917969v31.71875h58.917969c-7.308594 65.742187-59.488282 117.921875-125.230469 125.230469v-58.917969h-15.859375v106.359375c104.121094 0 188.53125-84.410156 188.53125-188.53125s-84.410156-188.53125-188.53125-188.53125zm0 0" fill="#fff5cb"/></svg>