<?xml version="1.0" encoding="iso-8859-1"?>
<!-- Generator: Adobe Illustrator 19.0.0, SVG Export Plug-In . SVG Version: 6.00 Build 0)  -->
<svg version="1.1" id="Capa_1" xmlns="http://www.w3.org/2000/svg" xmlns:xlink="http://www.w3.org/1999/xlink" x="0px" y="0px"
	 viewBox="0 0 512 512" style="enable-background:new 0 0 512 512;" xml:space="preserve">
<path style="fill:#44C973;" d="M256,448.301c-106.04,0-192.311-86.266-192.311-192.301C63.689,149.96,149.96,63.689,256,63.689
	c106.025,0,192.291,86.266,192.301,192.301C448.301,362.035,362.035,448.301,256,448.301z M256,238.261
	c-9.781,0-17.739,7.958-17.739,17.739c0,9.776,7.958,17.729,17.739,17.729c9.781,0,17.739-7.953,17.739-17.729
	C273.739,246.219,265.781,238.261,256,238.261z"/>
<g>
	<path style="fill:#248A48;" d="M256,277.745c-11.996,0-21.755-9.755-21.755-21.745c0-11.996,9.759-21.755,21.755-21.755
		c11.996,0,21.755,9.759,21.755,21.755C277.755,267.99,267.996,277.745,256,277.745z"/>
	<path style="fill:#248A48;" d="M444.285,257.998v-2.008C444.275,152.169,359.811,67.704,256,67.704h-2.008V8.031H256
		c66.235,0,128.503,25.792,175.336,72.624c46.833,46.831,72.628,109.1,72.633,175.335v2.008H444.285z"/>
	<path style="fill:#248A48;" d="M8.031,258.008V256c0-66.235,25.793-128.505,72.629-175.34C127.495,33.824,189.765,8.031,256,8.031
		h2.008v59.673H256C152.173,67.704,67.704,152.173,67.704,256v2.008H8.031z"/>
	<path style="fill:#248A48;" d="M256,503.969c-66.235,0-128.505-25.793-175.34-72.629C33.824,384.505,8.031,322.235,8.031,256
		v-2.008h59.673V256c0,103.822,84.469,188.285,188.296,188.285h2.008v59.683H256z"/>
	<path style="fill:#248A48;" d="M253.992,503.969v-59.683H256c103.821,0,188.285-84.464,188.285-188.285v-2.008l2.008-0.01h57.675
		v2.008c0,66.245-25.793,128.515-72.629,175.35c-46.835,46.836-109.105,72.629-175.34,72.629H253.992z"/>
</g>
<path d="M256,0C187.62,0,123.333,26.628,74.981,74.981S0,187.62,0,256s26.628,132.667,74.981,181.02
	C123.333,485.372,187.62,512,256,512s132.667-26.628,181.02-74.98C485.372,388.667,512,324.38,512,256v-0.01c0,0,0,0,0-0.001
	c-0.005-68.38-26.635-132.665-74.984-181.014C388.665,26.627,324.379,0,256,0z M491.693,245.951H456.08
	c-5.092-102.491-87.558-184.958-190.04-190.042V20.306C388.147,25.446,486.544,123.84,491.693,245.951z M318.574,266.029H435.97
	c-5.039,91.42-78.512,164.896-169.931,169.94V318.574c0-5.545-4.496-10.039-10.039-10.039c-5.544,0-10.039,4.495-10.039,10.039
	v117.395c-91.421-5.043-164.896-78.514-169.94-169.93h117.405c5.544,0,10.039-4.495,10.039-10.039
	c0-5.545-4.496-10.039-10.039-10.039H76.021c5.044-91.422,78.518-164.897,169.94-169.941v117.406
	c0,5.545,4.496,10.039,10.039,10.039c5.544,0,10.039-4.495,10.039-10.039V76.02c91.407,5.044,164.877,78.515,169.93,169.931H318.574
	c-5.544,0-10.039,4.495-10.039,10.039C308.535,261.535,313.031,266.029,318.574,266.029z M245.961,20.306v35.602
	C143.464,60.992,60.992,143.463,55.909,245.961H20.306C25.446,123.844,123.844,25.446,245.961,20.306z M20.306,266.039h35.603
	c5.084,102.491,87.555,184.958,190.051,190.041v35.612C123.844,486.554,25.446,388.156,20.306,266.039z M266.039,491.694v-35.612
	c102.494-5.084,184.964-87.555,190.042-190.051h35.612C486.559,388.151,388.159,486.554,266.039,491.694z"/>
<path d="M328.913,151.383c23.409,16.35,40.848,40.322,49.101,67.498c1.316,4.333,5.297,7.124,9.602,7.124
	c0.967,0,1.949-0.141,2.921-0.436c5.305-1.611,8.3-7.218,6.688-12.524c-9.556-31.463-29.733-59.207-56.815-78.123
	c-4.546-3.174-10.805-2.063-13.98,2.482C323.257,141.951,324.368,148.209,328.913,151.383z"/>
<path d="M256,226.214c-16.424,0-29.786,13.362-29.786,29.786c0,16.418,13.362,29.776,29.786,29.776s29.786-13.358,29.786-29.776
	C285.786,239.576,272.424,226.214,256,226.214z M256,265.698c-5.353,0-9.708-4.35-9.708-9.698c0-5.353,4.355-9.708,9.708-9.708
	c5.353,0,9.708,4.355,9.708,9.708C265.708,261.348,261.353,265.698,256,265.698z"/>
<path d="M306.698,119.467c-12.919,0-12.941,20.078,0,20.078C319.618,139.545,319.639,119.467,306.698,119.467z"/>
<g>
</g>
<g>
</g>
<g>
</g>
<g>
</g>
<g>
</g>
<g>
</g>
<g>
</g>
<g>
</g>
<g>
</g>
<g>
</g>
<g>
</g>
<g>
</g>
<g>
</g>
<g>
</g>
<g>
</g>
</svg>
