<?xml version="1.0" encoding="iso-8859-1"?>
<!-- Generator: Adobe Illustrator 19.0.0, SVG Export Plug-In . SVG Version: 6.00 Build 0)  -->
<svg version="1.1" id="Layer_1" xmlns="http://www.w3.org/2000/svg" xmlns:xlink="http://www.w3.org/1999/xlink" x="0px" y="0px"
	 viewBox="0 0 512.001 512.001" style="enable-background:new 0 0 512.001 512.001;" xml:space="preserve">
<circle style="fill:#C7CFE2;" cx="256.001" cy="256" r="192.376"/>
<circle style="fill:#959CB3;" cx="256.001" cy="256" r="64.125"/>
<path d="M504.486,248.018c-0.005,0-0.01,0-0.015,0l-16.666,0.031c-1.979-59.063-25.931-114.296-67.948-156.231
	C377.739,49.784,322.3,25.926,263.079,24.163L263.048,7.5c-0.008-4.144-3.371-7.5-7.515-7.5c-0.005,0-0.01,0-0.015,0
	c-4.15,0.008-7.509,3.379-7.501,7.529l0.031,16.667c-59.135,1.982-114.417,25.986-156.372,68.098
	c-41.955,42.113-65.751,97.485-67.51,156.628l-16.666,0.031c-4.15,0.008-7.509,3.379-7.501,7.529
	c0.008,4.146,3.371,7.501,7.515,7.501c0.005,0,0.01,0,0.015,0l16.666-0.031c1.979,59.063,25.931,114.296,67.948,156.231
	c42.118,42.034,97.558,65.893,156.778,67.655l0.031,16.664c0.008,4.146,3.371,7.501,7.515,7.501c0.005,0,0.01,0,0.015,0
	c4.15-0.008,7.509-3.379,7.501-7.529l-0.031-16.667c59.135-1.982,114.418-25.987,156.372-68.099
	c41.955-42.113,65.751-97.485,67.51-156.627l16.666-0.031c4.15-0.008,7.509-3.379,7.501-7.529
	C511.992,251.374,508.63,248.018,504.486,248.018z M248.078,39.235l0.032,17.042c-50.57,1.953-97.81,22.6-133.719,58.646
	c-35.91,36.044-56.38,83.362-58.143,133.939l-17.041,0.032C42.885,135.236,134.437,43.339,248.078,39.235z M39.236,263.921
	l17.041-0.032c1.813,46.038,19.423,90.034,50.052,124.607c1.485,1.676,3.551,2.531,5.628,2.531c1.771,0,3.55-0.623,4.981-1.89
	c3.106-2.752,3.394-7.502,0.641-10.609c-28.198-31.83-44.467-72.297-46.264-114.669l40.419-0.076
	c4.15-0.008,7.509-3.379,7.501-7.529c-0.008-4.146-3.371-7.501-7.515-7.501c-0.005,0-0.01,0-0.015,0l-40.417,0.076
	c1.761-46.562,20.675-90.102,53.751-123.303s76.546-52.277,123.1-54.214l0.076,40.417c0.008,4.146,3.371,7.501,7.515,7.501
	c0.005,0,0.01,0,0.015,0c4.15-0.008,7.509-3.379,7.501-7.529l-0.076-40.425c33.012,1.265,64.907,11.259,92.668,29.109
	c3.491,2.242,8.14,1.233,10.385-2.256c2.244-3.491,1.234-8.141-2.256-10.385c-30.198-19.417-64.923-30.22-100.824-31.505
	l-0.032-17.036c113.619,3.679,205.55,95.309,209.658,208.873l-17.03,0.032c-1.403-35.91-12.357-70.583-31.891-100.712
	c-2.257-3.482-6.91-4.474-10.393-2.217c-3.483,2.257-4.475,6.911-2.217,10.393c17.957,27.697,28.07,59.554,29.459,92.564
	l-40.423,0.076c-4.15,0.008-7.509,3.379-7.501,7.529c0.008,4.146,3.371,7.501,7.515,7.501c0.005,0,0.01,0,0.015,0l40.417-0.076
	c-1.761,46.561-20.675,90.103-53.751,123.303c-33.076,33.201-76.546,52.277-123.1,54.214l-0.076-40.417
	c-0.008-4.146-3.371-7.501-7.515-7.501c-0.005,0-0.01,0-0.015,0c-4.15,0.008-7.509,3.379-7.501,7.529l0.076,40.426
	c-39.672-1.482-76.896-15.283-108.065-40.16c-3.243-2.59-7.973-2.059-10.562,1.185c-2.589,3.244-2.058,7.972,1.185,10.561
	c33.362,26.63,74.814,41.907,117.469,43.446l0.032,17.043C135.275,469.115,43.343,377.485,39.236,263.921z M263.923,472.765
	l-0.032-17.042c50.57-1.953,97.81-22.6,133.719-58.646s56.38-83.363,58.142-133.939l17.041-0.032
	C469.117,376.763,377.564,468.66,263.923,472.765z"/>
<path d="M378.993,117.988c5.417,4.83,10.605,10.037,15.421,15.47c1.485,1.676,3.551,2.531,5.627,2.531
	c1.771,0,3.55-0.623,4.981-1.891c3.106-2.752,3.393-7.502,0.64-10.608c-5.204-5.873-10.812-11.5-16.667-16.721
	c-3.096-2.761-7.847-2.49-10.61,0.606C375.623,110.476,375.895,115.226,378.993,117.988z"/>
<path d="M159.813,263.696c0.005,0,0.01,0,0.015,0l24.945-0.047c3.576,33.484,30.34,60.162,63.848,63.611l0.047,24.942
	c0.008,4.146,3.371,7.501,7.515,7.501c0.005,0,0.01,0,0.015,0c4.15-0.008,7.509-3.379,7.501-7.529l-0.047-24.945
	c16.292-1.718,31.382-8.902,43.103-20.668c11.722-11.766,18.849-26.884,20.506-43.181l24.944-0.047
	c4.15-0.008,7.509-3.379,7.501-7.529c-0.008-4.146-3.371-7.501-7.515-7.501c-0.005,0-0.01,0-0.015,0l-24.945,0.047
	c-3.576-33.484-30.339-60.162-63.848-63.611l-0.047-24.942c-0.008-4.146-3.371-7.501-7.515-7.501c-0.005,0-0.01,0-0.015,0
	c-4.15,0.008-7.509,3.379-7.501,7.529l0.047,24.944c-16.292,1.718-31.382,8.902-43.103,20.668
	c-11.722,11.766-18.849,26.883-20.506,43.181l-24.944,0.047c-4.15,0.008-7.509,3.379-7.501,7.529
	C152.306,260.34,155.669,263.696,159.813,263.696z M199.919,263.62l48.582-0.091l0.091,48.581
	C223.381,308.793,203.33,288.811,199.919,263.62z M296.105,295.954c-8.882,8.916-20.215,14.495-32.484,16.137l-0.091-48.59
	l48.59-0.091C310.524,275.683,304.988,287.038,296.105,295.954z M312.082,248.38l-48.581,0.091l-0.091-48.581
	C288.62,203.207,308.671,223.189,312.082,248.38z M215.896,216.046c8.882-8.916,20.216-14.495,32.484-16.137l0.091,48.59
	l-48.59,0.091C201.477,236.317,207.013,224.962,215.896,216.046z"/>
<g>
</g>
<g>
</g>
<g>
</g>
<g>
</g>
<g>
</g>
<g>
</g>
<g>
</g>
<g>
</g>
<g>
</g>
<g>
</g>
<g>
</g>
<g>
</g>
<g>
</g>
<g>
</g>
<g>
</g>
</svg>
