<?xml version="1.0" encoding="iso-8859-1"?>
<!-- Generator: Adobe Illustrator 19.0.0, SVG Export Plug-In . SVG Version: 6.00 Build 0)  -->
<svg version="1.1" id="Layer_1" xmlns="http://www.w3.org/2000/svg" xmlns:xlink="http://www.w3.org/1999/xlink" x="0px" y="0px"
	 viewBox="0 0 512 512" style="enable-background:new 0 0 512 512;" xml:space="preserve">
<circle style="fill:#FFCE54;" cx="253.34" cy="256.01" r="198.47"/>
<polygon style="fill:#434A54;" points="386.007,386.678 320.006,365.35 294.678,334.678 255.679,349.35 214.678,340.678 
	186.678,366.678 137.342,383.35 120.006,399.35 142.678,424.74 211.342,454.476 278.006,458.679 348.007,440.021 391.351,411.35 "/>
<polygon style="fill:#ED5564;" points="287.35,348.678 229.343,344.678 236.679,383.334 233.007,453.444 284.006,458.679 
	271.342,390.678 "/>
<polygon style="fill:#EAC6BB;" points="317.35,224.678 287.35,212.678 184.67,235.334 190.006,290.678 238.671,346.678 
	283.35,341.334 322.663,284.006 "/>
<polygon style="fill:#656D78;" points="322.663,189.256 270.506,154.005 207.006,165.506 172.506,224.506 193.006,229.006 
	229.343,229.006 287.35,214.506 326.507,220.006 "/>
<path d="M508.883,248.459c-2.094-2.078-4.812-3.125-7.547-3.125l0,0h-32.641c-5.39-109.172-92.891-196.735-202.033-202.204V10.661
	l0,0c0-2.719-1.031-5.453-3.117-7.531c-4.164-4.172-10.921-4.172-15.085,0c-2.078,2.078-3.125,4.812-3.125,7.531l0,0v32.453
	c-109.313,5.297-197.016,92.922-202.407,202.22H10.662l0,0c-2.727,0-5.453,1.047-7.539,3.125c-4.164,4.172-4.164,10.922,0,15.078
	c2.086,2.094,4.82,3.125,7.555,3.125h32.25c5.391,109.297,93.094,196.938,202.407,202.22v32.453l0,0
	c0,2.734,1.047,5.453,3.125,7.547c4.164,4.156,10.921,4.156,15.085,0c2.086-2.094,3.117-4.812,3.117-7.547l0,0v-32.453
	c109.142-5.484,196.643-93.048,202.033-202.22h32.625c2.75,0,5.469-1.031,7.562-3.125
	C513.039,259.381,513.039,252.631,508.883,248.459z M131.209,401.834c1.203-4.297,4.383-7.828,8.688-9.375l0.406-0.125
	c16.656-4.516,29.023-8.891,36.484-11.75c21.758-8.391,34.969-16.469,41.781-25.703L229.39,383.6l-8.516,61.031
	c-13.602-2.5-26.883-6.453-39.719-11.875C162.928,425.037,146.194,414.662,131.209,401.834z M318.006,209.037
	c-6.328-5.891-14.062-8.875-23-8.875c-9.359,0-20.141,3.281-37.211,11.312c-15.874,7.469-32.116,11.25-48.265,11.25
	c-9.195,0-17.18-1.234-23.531-2.781c1.398-3.906,3.023-8.172,4.836-12.562c11.672-28.219,20.047-33.875,20.969-34.422
	c14.235-8.609,29.485-12.954,45.296-12.954c20.062,0,34.359,7.063,38.141,10.5c11.547,10.469,19.188,23.391,22.797,38.562
	C318.021,209.053,318.021,209.037,318.006,209.037z M194.866,243.193c4.547,0.531,9.438,0.875,14.664,0.875
	c16.446,0,36.032-3.25,57.351-13.281c13.922-6.562,22.391-9.281,28.125-9.281c9.25,0,11.406,7.094,17.812,16.703
	c1.062,1.594,2.547,3.109,4.266,4.531c0.453,3.672,0.703,7.453,0.703,11.359c0,19.406-8.969,41.047-24.594,59.375
	c-13.969,16.375-29.594,25.219-37.187,25.219c-7.609,0-23.219-8.844-37.188-25.219c-15.633-18.328-24.594-39.969-24.594-59.375
	C194.225,250.35,194.436,246.725,194.866,243.193z M250.116,389.396h11.772l8.086,57.891c-4.688,0.344-9.414,0.531-14.163,0.531
	c-4.617,0-9.211-0.172-13.773-0.5L250.116,389.396z M269.178,358.756l-3.5,9.281H246.32l-3.492-9.281h4.008
	c3.188,0.844,6.266,1.281,9.172,1.281c2.897,0,5.968-0.438,9.155-1.281H269.178z M291.131,444.568l-8.516-60.969l10.828-28.719
	c6.812,9.234,20.016,17.312,41.798,25.688c7.406,2.875,19.734,7.219,36.531,11.781l0.281,0.094c4.234,1.5,7.391,4.938,8.656,9.125
	c-15.047,12.969-31.891,23.422-50.234,31.188C317.756,438.131,304.6,442.068,291.131,444.568z M432.554,330.662
	c-8.656,20.469-20.688,39.078-35.781,55.406c-4.25-6.406-10.547-11.406-18.203-13.938l-0.938-0.297
	c-15.969-4.328-27.688-8.453-34.734-11.172c-24.985-9.609-31.501-16.547-33.157-19.812c-0.062-0.125-0.109-0.25-0.156-0.375
	l-0.109-13.234c16.798-19.719,29.642-46.172,29.642-73.141c0,0,15.672-58.469-29.563-99.407
	c-8.297-7.516-28.016-16.031-52.453-16.031c-17.226,0-36.781,4.234-56.328,16.031c-23.922,14.438-41.344,78.219-41.344,78.219
	s5.25,2.969,14.516,5.844c-0.688,4.938-1.062,10.047-1.062,15.344c0,26.969,12.844,53.422,29.641,73.156l-0.094,13.219
	c-0.055,0.125-0.102,0.25-0.156,0.375c-1.672,3.266-8.172,10.203-33.156,19.828c-7.047,2.703-18.773,6.828-34.594,11.125
	l-1.094,0.328c-7.734,2.562-14.109,7.656-18.352,14.188c-15.203-16.406-27.305-35.078-36.008-55.656
	c-8.625-20.375-13.562-41.859-14.766-64h31.703l0,0c2.719,0,5.453-1.031,7.531-3.125c4.172-4.156,4.172-10.906,0-15.078
	c-2.078-2.078-4.812-3.125-7.547-3.125H64.303c1.203-22.141,6.141-43.609,14.766-63.984c9.656-22.844,23.484-43.344,41.109-60.969
	s38.141-31.469,60.977-41.125c20.43-8.641,41.977-13.594,64.18-14.781v31.532l0,0c0,2.719,1.047,5.469,3.125,7.531
	c4.164,4.172,10.921,4.172,15.085,0c2.086-2.062,3.117-4.812,3.117-7.531l0,0v-31.5c22.062,1.219,43.484,6.156,63.813,14.75
	c22.828,9.656,43.344,23.5,60.969,41.125s31.453,38.125,41.109,60.969c8.625,20.375,13.562,41.844,14.766,63.984h-31.312l0,0
	c-2.734,0-5.469,1.047-7.547,3.125c-4.172,4.172-4.172,10.922,0,15.078c2.078,2.094,4.812,3.125,7.547,3.125h31.312
	C446.116,288.803,441.179,310.287,432.554,330.662z"/>
<g>
</g>
<g>
</g>
<g>
</g>
<g>
</g>
<g>
</g>
<g>
</g>
<g>
</g>
<g>
</g>
<g>
</g>
<g>
</g>
<g>
</g>
<g>
</g>
<g>
</g>
<g>
</g>
<g>
</g>
</svg>
