<svg height="512pt" viewBox="0 0 512 512" width="512pt" xmlns="http://www.w3.org/2000/svg"><path d="m441.988281 256c0 102.71875-83.269531 185.988281-185.988281 185.988281s-185.988281-83.269531-185.988281-185.988281 83.269531-185.988281 185.988281-185.988281 185.988281 83.269531 185.988281 185.988281zm0 0" fill="#fff"/><path d="m441.988281 256c0 102.71875-83.269531 185.988281-185.988281 185.988281v-371.976562c102.71875 0 185.988281 83.269531 185.988281 185.988281zm0 0" fill="#d6d6d8"/><g fill="#ff623f"><path d="m271 55.570312c-4.949219-.371093-9.949219-.558593-15-.558593s-10.050781.1875-15 .558593c-103.851562 7.691407-185.988281 94.648438-185.988281 200.429688s82.136719 192.738281 185.988281 200.429688c4.949219.371093 9.949219.558593 15 .558593s10.050781-.1875 15-.558593c103.851562-7.691407 185.988281-94.648438 185.988281-200.429688s-82.136719-192.738281-185.988281-200.429688zm0 370.769532c-4.941406.429687-9.949219.648437-15 .648437s-10.058594-.21875-15-.648437c-87.28125-7.621094-155.988281-81.109375-155.988281-170.339844s68.707031-162.71875 155.988281-170.328125c4.941406-.441406 9.949219-.660156 15-.660156s10.058594.21875 15 .660156c87.28125 7.609375 155.988281 81.097656 155.988281 170.328125s-68.707031 162.71875-155.988281 170.339844zm0 0"/><path d="m271 127.871094c-4.921875-.582032-9.929688-.871094-15-.871094s-10.078125.289062-15 .871094c-64.089844 7.449218-114 62.070312-114 128.128906s49.910156 120.679688 114 128.128906c4.921875.582032 9.929688.871094 15 .871094s10.078125-.289062 15-.871094c64.089844-7.449218 114-62.070312 114-128.128906s-49.910156-120.679688-114-128.128906zm-15 227.128906c-54.589844 0-99-44.410156-99-99s44.410156-99 99-99 99 44.410156 99 99-44.410156 99-99 99zm0 0"/><path d="m305.328125 256c0 27.246094-22.082031 49.328125-49.328125 49.328125s-49.328125-22.082031-49.328125-49.328125 22.082031-49.328125 49.328125-49.328125 49.328125 22.082031 49.328125 49.328125zm0 0"/><path d="m241 0h30v150.171875h-30zm0 0"/><path d="m241 361.828125h30v150.171875h-30zm0 0"/><path d="m0 241h150.167969v30h-150.167969zm0 0"/></g><path d="m456.429688 241c-7.320313-98.890625-86.53125-178.109375-185.429688-185.429688v-55.570312h-15v157c54.589844 0 99 44.410156 99 99s-44.410156 99-99 99v157h15v-55.570312c98.898438-7.320313 178.109375-86.539063 185.429688-185.429688h55.570312v-30zm-185.429688-113.128906v-42.199219c82.339844 7.179687 148.148438 72.988281 155.339844 155.328125h-42.210938c-6.878906-59.171875-53.957031-106.25-113.128906-113.128906zm0 298.46875v-42.210938c59.171875-6.878906 106.25-53.957031 113.128906-113.128906h42.210938c-7.191406 82.339844-73 148.148438-155.339844 155.339844zm0 0" fill="#e30020"/><path d="m305.328125 256c0-27.238281-22.089844-49.328125-49.328125-49.328125v98.65625c27.238281 0 49.328125-22.089844 49.328125-49.328125zm0 0" fill="#e30020"/></svg>