<svg height="512pt" viewBox="0 -48 512.00055 512" width="512pt" xmlns="http://www.w3.org/2000/svg"><path d="m152 88-8 32h-24l4.558594-32zm0 0" fill="#94c1ff"/><path d="m200 64v24h-75.441406l3.441406-24zm0 0" fill="#d7e9ff"/><path d="m152 88h48v-24h-72l-3.441406 24-4.558594 32h24zm8-80c44.160156 0 80 35.839844 80 80 0 16.960938-9.441406 40.960938-21.921875 64-20.15625 37.121094-48.230469 72-58.078125 72s-37.921875-34.878906-58.078125-72c-12.480469-23.039062-21.921875-47.039062-21.921875-64 0-44.160156 35.839844-80 80-80zm0 0" fill="#fff"/><path d="m392 184-8 32h-24l4.558594-32zm0 0" fill="#94c1ff"/><path d="m440 160v24h-75.441406l3.441406-24zm0 0" fill="#d7e9ff"/><path d="m392 184h48v-24h-72l-3.441406 24-4.558594 32h24zm88 0c0 12.398438-5.039062 28.558594-12.640625 45.359375-19.519531 43.121094-55.839844 90.640625-67.359375 90.640625-8.160156 0-28.800781-23.839844-47.039062-53.121094-17.601563-28.078125-32.960938-61.199218-32.960938-82.878906 0-11.359375 2.398438-22.238281 6.71875-32 12.320312-28.238281 40.488281-48 73.28125-48 44.160156 0 80 35.839844 80 80zm0 0" fill="#fff"/><path d="m326.640625 152h.078125c-4.320312 9.761719-6.71875 20.640625-6.71875 32 0 21.679688 15.359375 54.800781 32.960938 82.878906-51.761719 29.203125-96.960938 51.839844-96.960938 109.121094h-248l8-32c112-72 210-24.640625 272-192zm0 0" fill="#94c1ff"/><path d="m8 376h248v32h-248zm0 0" fill="#5c9eff"/><path d="m504 404.640625v3.359375h-248v-32h248zm0 0" fill="#94c1ff"/><path d="m467.359375 229.359375 36.640625 146.640625h-248c0-57.28125 45.199219-79.917969 96.960938-109.121094 18.238281 29.28125 38.878906 53.121094 47.039062 53.121094 11.519531 0 47.839844-47.519531 67.359375-90.640625zm0 0" fill="#d7e9ff"/><path d="m218.078125 152h69.921875c-62 167.359375-160 120-272 192l48-192h37.921875c20.15625 37.121094 48.230469 72 58.078125 72s37.921875-34.878906 58.078125-72zm0 0" fill="#d7e9ff"/><g fill="#116fff"><path d="m504 384h-496c-2.464844 0-4.792969-1.136719-6.304688-3.078125-1.511718-1.9375-2.054687-4.472656-1.457031-6.859375l56-224c1.066407-4.285156 5.417969-6.910156 9.699219-5.820312 4.285156 1.070312 6.894531 5.414062 5.824219 9.695312l-53.515625 214.0625h475.507812l-34.167968-136.664062c-1.082032-4.28125 1.527343-8.625 5.820312-9.695313 4.273438-1.097656 8.625 1.519531 9.699219 5.824219l36.65625 146.597656c.597656 2.394531.0625 4.921875-1.457031 6.859375-1.511719 1.941406-3.839844 3.078125-6.304688 3.078125zm0 0"/><path d="m256 384c-4.425781 0-8-3.574219-8-8 0-59.304688 45.550781-84.925781 93.785156-112.0625l7.199219-4.058594c3.839844-2.167968 8.726563-.832031 10.894531 3.023438 2.175782 3.84375.824219 8.730468-3.023437 10.898437l-7.230469 4.078125c-47.832031 26.921875-85.625 48.167969-85.625 98.121094 0 4.425781-3.574219 8-8 8zm0 0"/><path d="m8 416c-4.425781 0-8-3.574219-8-8v-32c0-4.421875 3.574219-8 8-8s8 3.578125 8 8v32c0 4.425781-3.574219 8-8 8zm0 0"/><path d="m504 416h-496c-4.425781 0-8-3.574219-8-8 0-4.421875 3.574219-8 8-8h496c4.425781 0 8 3.578125 8 8 0 4.425781-3.574219 8-8 8zm0 0"/><path d="m504 412.671875c-4.425781 0-8-3.574219-8-8v-28.671875c0-4.421875 3.574219-8 8-8s8 3.578125 8 8v28.671875c0 4.425781-3.574219 8-8 8zm0 0"/><path d="m256 416c-4.425781 0-8-3.574219-8-8v-32c0-4.421875 3.574219-8 8-8s8 3.578125 8 8v32c0 4.425781-3.574219 8-8 8zm0 0"/><path d="m16.007812 352c-2.632812 0-5.207031-1.296875-6.734374-3.671875-2.394532-3.71875-1.3125-8.671875 2.398437-11.054687 38.855469-24.984376 76.703125-36.144532 110.097656-45.984376 66.542969-19.617187 119.101563-35.113281 158.734375-142.074218 1.535156-4.140625 6.121094-6.269532 10.28125-4.71875 4.144532 1.527344 6.253906 6.136718 4.71875 10.28125-42.414062 114.480468-101.167968 131.800781-169.207031 151.847656-33.9375 10.007812-69.03125 20.351562-105.960937 44.09375-1.351563.875-2.839844 1.28125-4.328126 1.28125zm0 0"/><path d="m160 232c-23.183594 0-88-98.664062-88-144 0-48.519531 39.480469-88 88-88s88 39.480469 88 88c0 45.335938-64.816406 144-88 144zm0-216c-39.703125 0-72 32.296875-72 72 0 40.433594 57.832031 121.746094 72 127.832031 14.167969-6.097656 72-87.40625 72-127.832031 0-39.703125-32.296875-72-72-72zm0 0"/><path d="m400 328c-23.183594 0-88-98.664062-88-144 0-48.519531 39.480469-88 88-88s88 39.480469 88 88c0 45.335938-64.816406 144-88 144zm0-216c-39.703125 0-72 32.296875-72 72 0 40.433594 57.832031 121.746094 72 127.832031 14.167969-6.097656 72-87.40625 72-127.832031 0-39.703125-32.296875-72-72-72zm0 0"/><path d="m101.929688 160h-37.929688c-4.425781 0-8-3.574219-8-8 0-4.421875 3.574219-8 8-8h37.929688c4.421874 0 8 3.578125 8 8 0 4.425781-3.578126 8-8 8zm0 0"/><path d="m326.671875 160h-108.601563c-4.421874 0-8-3.574219-8-8 0-4.421875 3.578126-8 8-8h108.601563c4.425781 0 8 3.578125 8 8 0 4.425781-3.574219 8-8 8zm0 0"/><path d="m200.007812 96h-75.574218c-4.425782 0-8-3.574219-8-8 0-4.421875 3.574218-8 8-8h67.574218v-8h-64.007812c-4.425781 0-8-3.574219-8-8 0-4.421875 3.574219-8 8-8h72.007812c4.425782 0 8 3.578125 8 8v24c0 4.425781-3.574218 8-8 8zm0 0"/><path d="m143.992188 128h-24c-2.320313 0-4.519532-1.007812-6.046876-2.757812-1.511718-1.753907-2.203124-4.082032-1.875-6.378907l8.007813-56c.625-4.367187 4.683594-7.40625 9.058594-6.789062 4.375.621093 7.414062 4.679687 6.792969 9.054687l-6.714844 46.871094h8.527344l6.496093-25.945312c1.074219-4.292969 5.425781-6.894532 9.707031-5.8125 4.277344 1.070312 6.886719 5.414062 5.816407 9.703124l-8.007813 32c-.898437 3.558594-4.089844 6.054688-7.761718 6.054688zm0 0"/><path d="m159.992188 103.992188c-2.046876 0-4.097657-.785157-5.65625-2.34375l-7.992188-7.992188c-3.128906-3.128906-3.128906-8.183594 0-11.3125s8.183594-3.128906 11.3125 0l7.992188 7.992188c3.128906 3.128906 3.128906 8.183593 0 11.3125-1.558594 1.558593-3.609376 2.34375-5.65625 2.34375zm0 0"/><path d="m440.007812 192h-75.574218c-4.425782 0-8-3.574219-8-8 0-4.421875 3.574218-8 8-8h67.574218v-8h-64.007812c-4.425781 0-8-3.574219-8-8 0-4.421875 3.574219-8 8-8h72.007812c4.425782 0 8 3.578125 8 8v24c0 4.425781-3.574218 8-8 8zm0 0"/><path d="m383.992188 224h-24c-2.320313 0-4.519532-1.007812-6.046876-2.757812-1.511718-1.753907-2.203124-4.082032-1.875-6.378907l8.007813-56c.625-4.375 4.683594-7.398437 9.058594-6.789062 4.375.621093 7.414062 4.679687 6.792969 9.054687l-6.714844 46.871094h8.527344l6.496093-25.945312c1.074219-4.285157 5.417969-6.878907 9.707031-5.8125 4.277344 1.070312 6.886719 5.414062 5.816407 9.703124l-8.007813 32c-.898437 3.558594-4.089844 6.054688-7.761718 6.054688zm0 0"/><path d="m399.992188 199.992188c-2.046876 0-4.097657-.785157-5.65625-2.34375l-7.992188-7.992188c-3.128906-3.128906-3.128906-8.183594 0-11.3125s8.183594-3.128906 11.3125 0l7.992188 7.992188c3.128906 3.128906 3.128906 8.183593 0 11.3125-1.558594 1.558593-3.609376 2.34375-5.65625 2.34375zm0 0"/></g></svg>