<svg height="512pt" viewBox="0 -115 512 512" width="512pt" xmlns="http://www.w3.org/2000/svg"><path d="m6.707031 134.089844 19.777344 4.945312v-75.035156l-19.777344 4.945312c-3.9375.972657-6.70312475 4.503907-6.707031 8.5625v48.019532c.00390625 4.058594 2.769531 7.589844 6.707031 8.5625zm0 0"/><path d="m44.136719 140.269531 52.964843-5.914062v-65.675781l-52.964843-5.914063zm0 0"/><path d="m353.101562 139.742188 79.449219 33.101562v-142.652344l-79.449219 33.101563zm0 0"/><path d="m512 35.308594c0-4.875-3.953125-8.824219-8.828125-8.824219h-52.964844v150.066406h52.964844c4.875 0 8.828125-3.953125 8.828125-8.828125zm0 0"/><path d="m167.722656 70.621094h17.65625v61.792968h-17.65625zm0 0"/><path d="m264.828125 70.621094h17.65625v61.792968h-17.65625zm0 0"/><path d="m203.035156 141.242188c0 4.875 3.953125 8.828124 8.828125 8.828124h26.480469c4.875 0 8.828125-3.953124 8.828125-8.828124v-17.65625h-44.136719zm0 0"/><path d="m203.035156 52.964844h44.136719v17.65625h-44.136719zm0 0"/><path d="m203.035156 88.277344h44.136719v17.652344h-44.136719zm0 0"/><path d="m167.722656 8.828125v17.65625c0 4.875 3.953125 8.824219 8.828125 8.824219h17.65625v-35.308594h-17.65625c-4.875 0-8.828125 3.953125-8.828125 8.828125zm0 0"/><path d="m211.863281 0h26.480469v35.308594h-26.480469zm0 0"/><path d="m282.484375 8.828125c0-4.875-3.953125-8.828125-8.828125-8.828125h-17.65625v35.308594h17.65625c4.875 0 8.828125-3.949219 8.828125-8.824219zm0 0"/><path d="m150.070312 150.070312v-88.277343c0-4.875-3.953124-8.828125-8.828124-8.828125h-17.65625c-4.875 0-8.828126 3.953125-8.828126 8.828125v88.277343l25.511719 51.109376c.632813 1.230468.964844 2.589843.972657 3.972656v15.539062h-39.105469c-3.113281.019532-5.988281 1.660156-7.59375 4.324219l-22.6875 37.691406c-.796875 1.402344-1.222657 2.980469-1.234375 4.59375v15.183594h60.027344l-14.390626-21.628906c-2.152343-4.015625-.894531-9.015625 2.90625-11.53125 3.796876-2.519531 8.890626-1.730469 11.75 1.820312l17.652344 26.484375c.960938 1.4375 1.480469 3.125 1.503906 4.855469h51.199219l-14.390625-21.628906c-2.101562-2.609375-2.542968-6.183594-1.144531-9.226563 1.398437-3.042968 4.402344-5.03125 7.75-5.132812 3.347656-.105469 6.464844 1.695312 8.050781 4.648437l17.652344 26.484375c.960938 1.4375 1.480469 3.125 1.503906 4.855469h42.371094l-14.390625-21.628906c-2.101563-2.609375-2.542969-6.183594-1.144531-9.226563 1.398437-3.042968 4.402344-5.03125 7.75-5.132812 3.347656-.105469 6.464844 1.695312 8.050781 4.648437l17.652344 26.484375c.960937 1.4375 1.480469 3.125 1.503906 4.855469h51.726563l23.21875-61.792969h-48.464844v-15.539062c.007812-1.382813.339844-2.742188.972656-3.972656l25.511719-51.109376v-88.277343c0-4.875-3.953125-8.828125-8.828125-8.828125h-17.65625c-4.875 0-8.828125 3.953125-8.828125 8.828125v88.277343l-17.652344 35.308594-7.859375 15.800782c-.628906 1.230468-.960938 2.589843-.96875 3.972656v15.539062h-97.105469v-15.539062c-.007812-1.382813-.339843-2.742188-.96875-3.972656l-7.859375-15.800782zm0 0"/><path d="m377.46875 217.511719-24.367188 64.972656h48.554688c.003906-1.054687.183594-2.097656.527344-3.089844l13.242187-35.3125c1.105469-2.964843 3.707031-5.113281 6.824219-5.640625 3.121094-.527344 6.285156.652344 8.296875 3.089844 2.015625 2.4375 2.578125 5.765625 1.476563 8.730469l-12.09375 32.222656h56.761718v-61.792969c0-4.878906-3.953125-8.828125-8.828125-8.828125h-82.273437c-3.625 0-6.863282 2.253907-8.121094 5.648438zm0 0"/><path d="m191.382812 193.324219c1.511719 3.039062 2.4375 6.332031 2.734376 9.710937h61.972656c.308594-3.40625 1.234375-6.726562 2.734375-9.800781l3.882812-7.855469h-75.296875zm0 0"/><path d="m8.828125 282.484375h44.136719v-15.183594c.019531-4.644531 1.238281-9.207031 3.53125-13.242187l9.445312-15.714844h-57.113281c-4.875 0-8.828125 3.953125-8.828125 8.828125v26.484375c0 4.875 3.953125 8.828125 8.828125 8.828125zm0 0"/><path d="m512 273.65625v-26.484375c0-4.875-3.953125-8.828125-8.828125-8.828125h-8.828125v44.140625h8.828125c4.875 0 8.828125-3.953125 8.828125-8.828125zm0 0"/></svg>