<svg height="512pt" viewBox="-14 0 512 512" width="512pt" xmlns="http://www.w3.org/2000/svg"><path d="m458.667969 128h-8.535157v-8.535156c0-4.710938-3.820312-8.53125-8.53125-8.53125-4.714843 0-8.535156 3.820312-8.535156 8.53125v8.535156h-153.019531c-2.839844-.390625-16.460937-2.285156-31.777344-4.359375 12.429688-14.460937 17.027344-34.070313 12.320313-52.550781 1.480468-1.1875 2.824218-2.53125 4.011718-4.007813 4.773438-5.921875 6.578126-13.703125 4.898438-21.121093-3.898438-17.160157-17.757812-45.960938-66.832031-45.960938-32.207031 0-48.898438 14.097656-57.234375 25.933594-12.96875 20.441406-15.671875 45.757812-7.3125 68.480468 1.675781 4.621094 4.699218 8.632813 8.6875 11.511719 6.441406 17.332031 20.511718 30.730469 38.144531 36.316407l-23.324219 1.5625c-14.917968 1.035156-28.222656 9.765624-35.113281 23.039062l-7.792969 15.179688c-4.785156 9.324218-5.027344 20.332031-.648437 29.855468 4.378906 9.519532 12.890625 16.503906 23.085937 18.9375l8.964844 2.144532 14.371094 71.796874c1.222656 6.101563.183594 12.4375-2.925782 17.828126l-39.96875 69.332031c-2.265624 3.886719-5.273437 7.285156-8.859374 10.003906l-46.933594 35.90625-15.699219 12.015625c-14.136719 10.433594-18.316406 29.742188-9.765625 45.089844h-31.808594c-4.714844 0-8.535156 3.820312-8.535156 8.53125 0 4.714844 3.820312 8.535156 8.535156 8.535156h407.464844c23.550781-.027344 42.636719-19.113281 42.667969-42.667969 0-4.710937-3.820313-8.53125-8.535157-8.53125-4.710937 0-8.53125 3.820313-8.53125 8.53125 0 14.140625-11.464843 25.601563-25.601562 25.601563h-173.226562l7.980468-7.917969 44.15625-43.792969 6.207032-5.855468c9.875-9.316407 15.648437-22.179688 16.042968-35.753907.394532-13.574219-4.617187-26.75-13.9375-36.625l-35.753906-37.90625c-5.210938-5.492187-7.710938-13.011719-6.828125-20.53125l6.058594-51.882812c8.660156-2.992188 15.753906-9.328125 19.703125-17.59375 2.980468 1.226562 6.167968 1.863281 9.386718 1.867187h1.433594c10.863282-.039062 20.4375-7.132812 23.640625-17.511718l28.203125-16.28125c7.398438-4.320313 12.863282-11.3125 15.265625-19.539063 2.746094-1.488281 5.027344-3.703125 6.601563-6.402344h87.734375c14.136719 0 25.597656-11.460937 25.597656-25.597656 0-14.140625-11.460937-25.601563-25.597656-25.601563zm-187.734375 61.550781h-.109375c-.589844.246094-1.308594.511719-2.109375.777344l-.570313.179687c-.855469.273438-1.863281.554688-2.988281.851563l-.375.09375c-1.117188.273437-2.363281.546875-3.722656.855469l-.578125.117187c-1.46875.292969-3.089844.574219-4.839844.855469l-.902344.136719c-1.851562.28125-3.832031.5625-5.972656.851562h-.128906c-2.144531.257813-4.480469.503907-6.957031.734375l-1.125.101563c-2.476563.222656-5.117188.425781-7.925782.605469l-1.597656.101562c-2.953125.179688-6.03125.34375-9.386719.480469-.511719.011719-.992187-.238281-1.269531-.667969-.632812-.867188-.804688-1.984375-.460938-3.003906.355469-1.183594.5625-2.269532.851563-3.410156.078125-.242188.222656-.429688.28125-.667969s0-.296875 0-.453125c.855469-3.136719 1.707031-6.261719 2.269531-9.222656.300782-1.5.453125-2.910157.691406-4.367188.453126-2.792969.855469-5.558594 1.085938-8.195312.136719-1.707032.160156-3.328126.203125-4.957032.058594-2.226562.058594-4.417968-.058594-6.535156-.101562-1.65625-.257812-3.277344-.460937-4.863281-.113282-.855469-.113282-1.792969-.257813-2.628907-.109375-.410156-.257812-.804687-.441406-1.1875-.316406-1.59375-.453125-3.292968-.855469-4.8125-.257812-.859374-.140625-1.792968.324219-2.558593.289063-.503907.769531-1.066407 1.390625-.972657l2.289062.296876c15.8125 2.082031 33.859376 4.558593 43.707032 5.921874zm-111.546875-153.796875c8.738281-12.398437 23.304687-18.6875 43.28125-18.6875 28.378906 0 45.269531 10.992188 50.183593 32.675782.53125 2.355468-.054687 4.824218-1.585937 6.6875-1.652344 2.085937-4.167969 3.304687-6.828125 3.304687h-33.238281c-9.425781 0-17.066407 7.640625-17.066407 17.066406v17.066407h-32.066406c-1.507812-.050782-2.972656-.484376-4.269531-1.253907-.222656-.101562-.453125-.191406-.691406-.265625-1.335938-.886718-2.355469-2.171875-2.90625-3.679687-6.476563-17.5-4.5625-37.003907 5.1875-52.914063zm9.199219 75.179688h25.546874c9.425782 0 17.066407-7.640625 17.066407-17.066406v-17.066407h33.28125c.578125 2.808594.863281 5.667969.851562 8.53125-.046875 14.214844-7.140625 27.476563-18.933593 35.40625-.71875-.023437-1.4375-.003906-2.152344.058594-.628906 0-1.269532 0-1.894532.0625-.867187.148437-1.722656.363281-2.558593.648437-.578125.128907-1.148438.285157-1.707031.476563-.585938.265625-1.15625.570313-1.707032.902344-2.089844 1.042969-3.964844 2.476562-5.519531 4.21875v.066406c-16.042969 3.1875-32.492187-3.128906-42.273437-16.238281zm75.09375 193.621094c-.113282.851562-.121094 1.765624-.171876 2.644531h-61.652343c-.078125-1.929688-.285157-3.855469-.625-5.757813l-12.800781-64.085937 5.648437 1.347656c.703125.160156 1.417969.238281 2.136719.230469l71.78125 16.792968c.46875.109376.945312.078126 1.417968.164063zm-163.621094 186.878906c-3.722656 2.847656-8.449219 4.039062-13.078125 3.296875-4.625-.746094-8.742188-3.359375-11.386719-7.230469-4.273438-6.871094-3.355469-15.769531 2.238281-21.621094.800781-.886718 1.683594-1.699218 2.636719-2.425781l9.105469-6.980469c7.011719 8.628906 15.289062 18.679688 21.972656 26.769532zm143.472656-1.484375c-3.246094 3.390625-7.796875 5.207031-12.484375 4.984375-4.695313-.105469-9.136719-2.160156-12.261719-5.667969-5.914062-7.34375-5.191406-18.003906 1.664063-24.480469l7.816406-7.816406 24.335937 24.011719zm-21.375-51.027344-13.808594 13.804687c-11.347656 11.050782-13.941406 28.308594-6.347656 42.207032h-77.464844l54.253906-38.691406c4.976563-3.527344 9.140626-8.082032 12.203126-13.363282l42.453124-73.546875 22.636719 24.003907c3.167969 3.355468 3.09375 8.621093-.167969 11.886718zm88.617188-62.199219c12.929687 13.707032 12.304687 35.300782-1.398438 48.238282l-44.640625 44.058593-24.402344-24.125 27.648438-27.648437c9.855469-9.765625 10.085937-25.621094.519531-35.667969l-30.472656-32.335937c-1.84375-1.972657-4.519532-2.949219-7.203125-2.617188-2.679688.3125-5.050781 1.871094-6.398438 4.207031l-48.214843 83.515625c-1.828126 3.175782-4.324219 5.917969-7.3125 8.039063l-43.390626 30.949219c-6.699218-8.117188-15.121093-18.347657-22.34375-27.214844l39.953126-30.574219c5.359374-4.09375 9.851562-9.210937 13.21875-15.050781l40.015624-69.300782c1.261719-2.210937 2.324219-4.53125 3.179688-6.929687h66.5625c1.972656 5.390625 5.019531 10.324219 8.949219 14.507813zm-18.542969-150.359375c-1.640625 6.894531-7.382813 12.054688-14.414063 12.945313-.109375 0-.203125.078125-.316406.09375-1.898438.21875-3.824219.113281-5.691406-.316406l-73.8125-17.269532c-.679688-.160156-1.375-.222656-2.074219-.1875l-19.925781-4.753906-10.902344-2.613281c-5.097656-1.214844-9.351562-4.707031-11.542969-9.464844-2.1875-4.757813-2.070312-10.261719.320313-14.921875l7.789062-15.179688c4.128906-7.976562 12.117188-13.226562 21.078125-13.84375l45.476563-3.035156c0 1.988282.125 3.949219 0 6.101563v.554687c-.296875 3.261719-.757813 6.503906-1.382813 9.71875-.136719.742188-.300781 1.492188-.453125 2.253906l-3.609375-.855468c-4.597656-1.039063-9.167969 1.847656-10.207031 6.441406-1.039062 4.597656 1.847656 9.167969 6.445312 10.207031l3.734376.855469c-.15625 4.664062 1.304687 9.238281 4.140624 12.945312.902344 1.160157 1.933594 2.214844 3.070313 3.148438.34375.28125.742187.460938 1.101563.707031.808593.601563 1.664062 1.136719 2.558593 1.59375.34375.164063.71875.25 1.066407.386719.980468.421875 1.992187.753906 3.03125.996094.375.085937.785156.078125 1.175781.136718.886719.167969 1.78125.269532 2.679687.308594h.761719c3.207031-.128906 6.230469-.28125 9.113281-.453125.945313-.050781 1.78125-.117187 2.695313-.179687 1.859375-.125 3.730469-.246094 5.453125-.382813 1.050781-.085937 2.015625-.179687 3.019531-.273437 1.433594-.128906 2.894531-.253906 4.269531-.402344 1.03125-.101562 1.980469-.21875 2.953125-.332031 1.183594-.144531 2.371094-.28125 3.480469-.425781l2.738281-.382813c.980469-.144531 1.980469-.292969 2.902344-.445313l2.515625-.433593c.855469-.15625 1.640625-.300781 2.40625-.453125.769531-.152344 1.519531-.316406 2.246094-.46875.726562-.15625 1.382812-.308594 2.03125-.46875l1.945312-.488282.851563-.230468v6.554687c.007812 1.566407.164062 3.128907.46875 4.667969.199219.863281.441406 1.71875.726562 2.558594.164063.519531.246094 1.042968.445313 1.554687.035156 1.179688-.070313 2.359375-.324219 3.515625zm25.019531-4.496093h-1.433594c-3.046875-.015626-5.804687-1.800782-7.066406-4.574219-.484375-1.011719-.738281-2.121094-.75-3.242188v-68.984375h68.265625v25.464844c-.195313 0-.492187.085938-.792969.144531h-22.246094c-15.550781 0-28.15625 12.601563-28.160156 28.152344v15.214844c0 4.316406-3.496094 7.820312-7.816406 7.824219zm43.316406-31.503907-18.433594 10.640625v-2.175781c0-2.945313 1.167969-5.765625 3.25-7.84375 2.082032-2.082031 4.902344-3.25 7.84375-3.25h10.761719c-1.027343 1.015625-2.175781 1.898437-3.421875 2.628906zm118.101563-28.230469h-85.335938v-17.066406h85.335938c4.710937 0 8.53125 3.820313 8.53125 8.535156 0 4.710938-3.820313 8.53125-8.53125 8.53125zm0 0"/></svg>