<?xml version="1.0" encoding="iso-8859-1"?>
<!-- Generator: Adobe Illustrator 18.0.0, SVG Export Plug-In . SVG Version: 6.00 Build 0)  -->
<!DOCTYPE svg PUBLIC "-//W3C//DTD SVG 1.1//EN" "http://www.w3.org/Graphics/SVG/1.1/DTD/svg11.dtd">
<svg version="1.1" id="Capa_1" xmlns="http://www.w3.org/2000/svg" xmlns:xlink="http://www.w3.org/1999/xlink" x="0px" y="0px"
	 viewBox="0 0 496.943 496.943" style="enable-background:new 0 0 496.943 496.943;" xml:space="preserve">
<g>
	<path d="M383.758,190.054c0-18.748-5.932-34.184-17.153-44.638c-10.296-9.592-24.488-14.661-41.042-14.661
		c-18.589,0-34.25,6.457-44.53,18.251c-8.798-4.204-19.025-6.386-30.274-6.386c-11.254,0-21.486,2.185-30.288,6.393
		c-10.3-11.798-25.954-18.258-44.516-18.258c-16.554,0-30.746,5.069-41.042,14.661c-11.221,10.454-17.153,25.89-17.153,44.638
		c0,30.428,14.495,61.368,34.075,75.849c-28.011,5.899-53.148,22.017-70.284,45.418c-0.946,1.292-1.086,3.005-0.362,4.434
		c0.724,1.428,2.189,2.327,3.791,2.327h81.665c-6.455,5.791-12.35,12.277-17.558,19.389c-0.946,1.292-1.086,3.005-0.362,4.434
		c0.724,1.428,2.189,2.327,3.79,2.327h196.485c1.601,0,3.066-0.899,3.79-2.328c0.725-1.428,0.585-3.142-0.361-4.433
		c-5.208-7.111-11.103-13.598-17.558-19.389h81.666c1.601,0,3.066-0.899,3.79-2.328c0.725-1.428,0.585-3.142-0.361-4.433
		c-17.137-23.402-42.273-39.518-70.285-45.417C369.263,251.422,383.758,220.482,383.758,190.054z M93.785,309.581
		c18.119-21.015,43.699-34.417,71.397-37.148c1.974-0.194,3.55-1.729,3.799-3.696c0.249-1.968-0.896-3.846-2.759-4.525
		c-19.73-7.202-36.665-36.016-39.53-65.496h28.313c2.347,0,4.25-1.902,4.25-4.25c0-2.348-1.903-4.25-4.25-4.25h-28.743
		c0-0.054-0.003-0.107-0.003-0.161c0-31.809,18.577-50.799,49.694-50.799c15.354,0,28.286,4.982,36.971,14.108
		c-2.208,1.515-4.301,3.176-6.256,4.997c-12.047,11.223-18.415,27.805-18.415,47.954c0,17.059,4.236,34.261,11.263,49.034
		c-4.434,4.144-9.075,7.126-13.831,8.863c-1.863,0.681-3.007,2.559-2.758,4.526c0.249,1.967,1.826,3.501,3.799,3.695
		c9.827,0.969,19.465,3.293,28.671,6.89c3.195,3.468,6.585,6.528,10.129,9.077c-17.48,3.571-33.936,10.839-48.306,21.181H93.785z
		 M203.596,263.109c0.844,1.458,1.714,2.886,2.613,4.276c-2.019-0.541-4.047-1.046-6.092-1.477
		C201.291,265.043,202.45,264.103,203.596,263.109z M340.231,335.73H161.287c19.65-23.083,47.562-37.811,77.805-40.794
		c1.974-0.194,3.55-1.729,3.799-3.696c0.249-1.968-0.896-3.846-2.759-4.525c-23.513-8.583-43.378-45.401-43.378-80.4
		c0-4.619,0.372-8.982,1.078-13.087h71.318c2.348,0,4.25-1.902,4.25-4.25c0-2.348-1.902-4.25-4.25-4.25h-69.246
		c6.894-21.379,24.832-33.608,50.853-33.608c33.816,0,54.005,20.634,54.005,55.194c0,34.999-19.865,71.817-43.378,80.4
		c-1.863,0.68-3.008,2.558-2.76,4.525c0.249,1.968,1.826,3.502,3.8,3.696C292.668,297.919,320.579,312.648,340.231,335.73z
		 M301.399,265.909c-2.045,0.431-4.072,0.935-6.091,1.477c0.899-1.391,1.769-2.818,2.613-4.276
		C299.067,264.103,300.226,265.042,301.399,265.909z M407.733,309.581h-83.438c-14.37-10.342-30.826-17.609-48.306-21.181
		c3.544-2.549,6.934-5.609,10.129-9.076c9.204-3.598,18.843-5.922,28.671-6.891c1.974-0.194,3.55-1.728,3.8-3.695
		c0.249-1.968-0.896-3.846-2.759-4.526c-4.758-1.737-9.398-4.719-13.831-8.863c7.026-14.775,11.263-31.975,11.263-49.034
		c0-20.149-6.368-36.732-18.415-47.954c-1.959-1.825-4.056-3.489-6.27-5.006c8.669-9.12,21.607-14.1,36.984-14.1
		c22.287,0,38.138,9.745,45.342,26.961h-26.946c-2.348,0-4.25,1.902-4.25,4.25c0,2.348,1.902,4.25,4.25,4.25h29.646
		c1.084,4.71,1.654,9.826,1.654,15.338c0,32.29-18.302,66.25-39.964,74.158c-1.863,0.68-3.009,2.559-2.76,4.525
		c0.249,1.968,1.826,3.502,3.8,3.696C364.032,275.164,389.613,288.566,407.733,309.581z"/>
	<path d="M484.005,234.393h-20.308c-3.379-52.169-25.56-101.091-62.745-138.146c-37.189-37.062-86.201-59.073-138.401-62.267V12.938
		C262.551,5.804,256.746,0,249.61,0h-2.279c-7.134,0-12.938,5.804-12.938,12.938v21.129c-51.87,3.55-100.518,25.714-137.373,62.698
		c-36.861,36.99-58.855,85.727-62.219,137.628H12.938C5.804,234.393,0,240.197,0,247.332v2.279c0,7.135,5.804,12.938,12.938,12.938
		h21.866c3.364,51.9,25.359,100.637,62.219,137.626c36.854,36.983,85.501,59.148,137.37,62.697v21.131
		c0,7.135,5.804,12.94,12.938,12.94h2.279c7.136,0,12.94-5.805,12.94-12.94v-21.046c52.198-3.193,101.211-25.205,138.4-62.266
		c37.185-37.054,59.366-85.976,62.746-138.143h20.308c7.135,0,12.939-5.804,12.939-12.938v-2.279
		C496.943,240.197,491.14,234.393,484.005,234.393z M455.182,234.393h-10.268c-3.351-47.161-23.571-91.378-57.216-124.894
		c-33.65-33.522-77.955-53.575-125.148-56.741V42.493C364.841,49.058,448.238,132.14,455.182,234.393z M404.419,262.55h31.979
		c-6.874,93.283-80.524,166.626-173.847,173.116v-31.248c0-7.134-5.805-12.938-12.94-12.938h-2.279
		c-7.134,0-12.938,5.804-12.938,12.938v31.132c-92.48-7.212-165.461-80.491-172.292-173h30.424c7.134,0,12.938-5.804,12.938-12.938
		v-2.279c0-7.135-5.804-12.939-12.938-12.939H62.103c6.83-92.513,79.81-165.795,172.29-173.007v31.138
		c0,7.135,5.804,12.939,12.938,12.939h2.279c7.136,0,12.94-5.805,12.94-12.939V61.272c93.324,6.49,166.975,79.836,173.848,173.121
		h-31.98c-7.135,0-12.938,5.805-12.938,12.939v2.279C391.481,256.746,397.284,262.55,404.419,262.55z M242.893,12.938
		c0-2.447,1.991-4.438,4.438-4.438h2.279c2.448,0,4.44,1.99,4.44,4.438v79.586c0,2.448-1.992,4.439-4.44,4.439h-2.279
		c-2.447,0-4.438-1.991-4.438-4.439V12.938z M234.393,42.583v10.283c-46.861,3.518-90.802,23.718-124.118,57.159
		c-33.322,33.447-53.356,77.477-56.688,124.367H43.315C50.217,131.239,131.276,49.87,234.393,42.583z M8.5,249.611v-2.279
		c0-2.448,1.991-4.439,4.438-4.439h79.586c2.447,0,4.438,1.991,4.438,4.439v2.279c0,2.447-1.991,4.438-4.438,4.438H12.938
		C10.491,254.05,8.5,252.059,8.5,249.611z M43.319,262.55h10.265c3.334,46.89,23.368,90.917,56.691,124.363
		c33.316,33.439,77.257,53.639,124.118,57.156v10.287C131.28,447.07,50.223,365.704,43.319,262.55z M254.051,484.004
		c0,2.448-1.992,4.44-4.44,4.44h-2.279c-2.447,0-4.438-1.991-4.438-4.44v-79.586c0-2.447,1.991-4.438,4.438-4.438h2.279
		c2.448,0,4.44,1.99,4.44,4.438V484.004z M262.551,454.444V444.18c47.191-3.166,91.495-23.218,125.146-56.739
		c33.646-33.516,53.866-77.732,57.217-124.891h10.269C448.236,364.8,364.839,447.88,262.551,454.444z M488.443,249.611
		c0,2.447-1.991,4.438-4.439,4.438h-79.586c-2.447,0-4.438-1.991-4.438-4.438v-2.279c0-2.448,1.991-4.439,4.438-4.439h79.586
		c2.447,0,4.439,1.991,4.439,4.439V249.611z"/>
</g>
<g>
</g>
<g>
</g>
<g>
</g>
<g>
</g>
<g>
</g>
<g>
</g>
<g>
</g>
<g>
</g>
<g>
</g>
<g>
</g>
<g>
</g>
<g>
</g>
<g>
</g>
<g>
</g>
<g>
</g>
</svg>
