<svg xmlns="http://www.w3.org/2000/svg" height="1210.9375pt" version="1.1" viewBox="0 0 1210.9375 1210.9375" width="1210.9375pt">
<g id="surface1">
<path d="M 660.292969 535.3125 C 719.574219 509.371094 752.546875 445.40625 739.289062 382.070312 C 726.023438 318.71875 670.175781 273.351562 605.46875 273.351562 C 540.761719 273.351562 484.914062 318.71875 471.648438 382.070312 C 458.390625 445.40625 491.363281 509.371094 550.644531 535.3125 C 467.46875 559.722656 410.292969 635.980469 410.15625 722.65625 L 410.15625 898.4375 C 410.15625 909.226562 418.898438 917.96875 429.6875 917.96875 L 781.25 917.96875 C 792.039062 917.96875 800.78125 909.226562 800.78125 898.4375 L 800.78125 722.65625 C 800.644531 635.980469 743.46875 559.722656 660.292969 535.3125 Z M 507.8125 410.15625 C 507.8125 356.226562 551.539062 312.5 605.46875 312.5 C 659.398438 312.5 703.125 356.226562 703.125 410.15625 C 703.125 464.085938 659.398438 507.8125 605.46875 507.8125 C 551.5625 507.742188 507.882812 464.0625 507.8125 410.15625 Z M 761.71875 878.90625 L 449.21875 878.90625 L 449.21875 722.65625 C 449.21875 636.359375 519.171875 566.40625 605.46875 566.40625 C 691.765625 566.40625 761.71875 636.359375 761.71875 722.65625 Z M 761.71875 878.90625 " style=" stroke:none;fill-rule:nonzero;fill:rgb(0%,0%,0%);fill-opacity:1;" />
<path d="M 1191.40625 585.9375 L 1132.324219 585.9375 C 1121.777344 310.242188 900.695312 89.160156 625 78.613281 L 625 19.53125 C 625 8.742188 616.257812 0 605.46875 0 C 594.679688 0 585.9375 8.742188 585.9375 19.53125 L 585.9375 78.613281 C 310.242188 89.160156 89.160156 310.242188 78.613281 585.9375 L 19.53125 585.9375 C 8.742188 585.9375 0 594.679688 0 605.46875 C 0 616.257812 8.742188 625 19.53125 625 L 78.613281 625 C 89.160156 900.695312 310.242188 1121.777344 585.9375 1132.324219 L 585.9375 1191.40625 C 585.9375 1202.195312 594.679688 1210.9375 605.46875 1210.9375 C 616.257812 1210.9375 625 1202.195312 625 1191.40625 L 625 1132.324219 C 900.695312 1121.777344 1121.777344 900.695312 1132.324219 625 L 1191.40625 625 C 1202.195312 625 1210.9375 616.257812 1210.9375 605.46875 C 1210.9375 594.679688 1202.195312 585.9375 1191.40625 585.9375 Z M 625 1093.261719 L 625 1035.15625 C 625 1024.367188 616.257812 1015.625 605.46875 1015.625 C 594.679688 1015.625 585.9375 1024.367188 585.9375 1035.15625 L 585.9375 1093.261719 C 331.792969 1082.769531 128.167969 879.144531 117.675781 625 L 175.78125 625 C 186.570312 625 195.3125 616.257812 195.3125 605.46875 C 195.3125 594.679688 186.570312 585.9375 175.78125 585.9375 L 117.675781 585.9375 C 128.167969 331.792969 331.792969 128.167969 585.9375 117.675781 L 585.9375 175.78125 C 585.9375 186.570312 594.679688 195.3125 605.46875 195.3125 C 616.257812 195.3125 625 186.570312 625 175.78125 L 625 117.675781 C 879.144531 128.167969 1082.769531 331.792969 1093.261719 585.9375 L 1035.15625 585.9375 C 1024.367188 585.9375 1015.625 594.679688 1015.625 605.46875 C 1015.625 616.257812 1024.367188 625 1035.15625 625 L 1093.261719 625 C 1082.769531 879.144531 879.144531 1082.769531 625 1093.261719 Z M 625 1093.261719 " style=" stroke:none;fill-rule:nonzero;fill:rgb(0%,0%,0%);fill-opacity:1;" />
<path d="M 58.59375 195.3125 C 69.382812 195.3125 78.125 186.570312 78.125 175.78125 L 78.125 78.125 L 175.78125 78.125 C 186.570312 78.125 195.3125 69.382812 195.3125 58.59375 C 195.3125 47.804688 186.570312 39.0625 175.78125 39.0625 L 58.59375 39.0625 C 47.804688 39.0625 39.0625 47.804688 39.0625 58.59375 L 39.0625 175.78125 C 39.0625 186.570312 47.804688 195.3125 58.59375 195.3125 Z M 58.59375 195.3125 " style=" stroke:none;fill-rule:nonzero;fill:rgb(0%,0%,0%);fill-opacity:1;" />
<path d="M 1035.15625 78.125 L 1132.8125 78.125 L 1132.8125 175.78125 C 1132.8125 186.570312 1141.554688 195.3125 1152.34375 195.3125 C 1163.132812 195.3125 1171.875 186.570312 1171.875 175.78125 L 1171.875 58.59375 C 1171.875 47.804688 1163.132812 39.0625 1152.34375 39.0625 L 1035.15625 39.0625 C 1024.367188 39.0625 1015.625 47.804688 1015.625 58.59375 C 1015.625 69.382812 1024.367188 78.125 1035.15625 78.125 Z M 1035.15625 78.125 " style=" stroke:none;fill-rule:nonzero;fill:rgb(0%,0%,0%);fill-opacity:1;" />
<path d="M 175.78125 1132.8125 L 78.125 1132.8125 L 78.125 1035.15625 C 78.125 1024.367188 69.382812 1015.625 58.59375 1015.625 C 47.804688 1015.625 39.0625 1024.367188 39.0625 1035.15625 L 39.0625 1152.34375 C 39.0625 1163.132812 47.804688 1171.875 58.59375 1171.875 L 175.78125 1171.875 C 186.570312 1171.875 195.3125 1163.132812 195.3125 1152.34375 C 195.3125 1141.554688 186.570312 1132.8125 175.78125 1132.8125 Z M 175.78125 1132.8125 " style=" stroke:none;fill-rule:nonzero;fill:rgb(0%,0%,0%);fill-opacity:1;" />
<path d="M 1152.34375 1015.625 C 1141.554688 1015.625 1132.8125 1024.367188 1132.8125 1035.15625 L 1132.8125 1132.8125 L 1035.15625 1132.8125 C 1024.367188 1132.8125 1015.625 1141.554688 1015.625 1152.34375 C 1015.625 1163.132812 1024.367188 1171.875 1035.15625 1171.875 L 1152.34375 1171.875 C 1163.132812 1171.875 1171.875 1163.132812 1171.875 1152.34375 L 1171.875 1035.15625 C 1171.875 1024.367188 1163.132812 1015.625 1152.34375 1015.625 Z M 1152.34375 1015.625 " style=" stroke:none;fill-rule:nonzero;fill:rgb(0%,0%,0%);fill-opacity:1;" />
</g>
</svg>