<?xml version="1.0" encoding="iso-8859-1"?>
<!-- Generator: Adobe Illustrator 19.0.0, SVG Export Plug-In . SVG Version: 6.00 Build 0)  -->
<svg version="1.1" id="Capa_1" xmlns="http://www.w3.org/2000/svg" xmlns:xlink="http://www.w3.org/1999/xlink" x="0px" y="0px"
	 viewBox="0 0 512.001 512.001" style="enable-background:new 0 0 512.001 512.001;" xml:space="preserve">
<g>
	<g>
		<path d="M463.94,356.586l-97.213-33.844v-11.396c0-5.522-4.477-10-10-10c-5.522,0-10,4.478-10,10v138.676
			c-6.252-5-12.667-10.254-19.068-15.676c-67.483-57.16-74.769-82.719-74.769-91.054c0-25.491,48.713-45.576,95.822-64.999
			c13.403-5.525,26.914-11.098,39.731-16.957c0.018,0,0.034,0.002,0.052,0.002h40c5.52,0,10-4.49,10-10
			c0-5.521-4.48-10.011-10-10.011h-2.435c22.518-14.589,37.82-31.745,37.82-53.944c0-21.475-11.857-39.979-36.25-56.57
			c-9.754-6.635-20.977-12.578-32.568-18.023V88.233l67.339-32.815c3.44-1.677,5.622-5.17,5.619-8.998
			c-0.003-3.827-2.191-7.317-5.635-8.988L392.753,1.649c-3.478-1.649-4.598-1.611-7.69-1.611c-5.522,0-10,4.478-10,10v93.884
			c-5.152-2.184-10.257-4.294-15.214-6.34c-26.496-10.938-59.472-24.551-59.472-35.965c0-15.06,5.311-26.568,15.785-34.203
			c8.276-6.033,16.911-7.525,16.938-7.53c5.166-0.794,8.85-5.434,8.451-10.646C341.153,4.026,336.809,0,331.581,0h-74.914
			c-3.526,0-17.964,3.788-33.158,13.938c-20.966,14.005-32.049,33.95-32.049,57.68c0,14.634,6.931,26.574,17.346,37.051h-31.639
			c-5.51,0-10,4.479-10,10c0,5.51,4.49,10,10,10h57.059c5.379,3.571,10.933,7.045,16.453,10.496
			c16.856,10.54,34.11,21.336,42.698,33.169H239.5c-5.523,0-10,4.478-10,10c0,5.523,4.477,10,10,10h56.455
			c-2.927,2.864-8.687,6.815-20.027,11.578c-17.257,7.25-41.48,14.008-67.125,21.162c-33.411,9.321-71.025,19.823-101.066,33.757
			v-35.603l90.233-31.601c4.013-1.405,6.699-5.194,6.695-9.446c-0.004-4.253-2.696-8.037-6.712-9.436l-90.215-31.406v-8.573
			c0-5.522-4.477-10-10-10c-5.523,0-10,4.478-10,10v136.61c-28.076,16.998-41.791,36.697-41.791,59.913
			c0,33.249,19.623,65.333,45.223,93.045H31.5c-5.523,0-10,4.478-10,10c0,5.522,4.477,10,10,10h79.867
			c43.39,39.591,93.022,66.511,96.7,68.482c1.453,0.778,3.075,1.185,4.722,1.185h186.945c0.006,0,0.012,0,0.02,0
			c5.523,0,10-4.478,10-10c0-3.604-1.907-6.764-4.768-8.523c-2.593-1.782-18.091-12.506-38.26-27.857v-56.1l97.23-34.052
			c4.013-1.405,6.698-5.194,6.694-9.446C470.648,361.769,467.956,357.984,463.94,356.586z M395.063,24.999l40.09,21.45
			l-40.075,19.529l-0.015-20.165V24.999z M161.331,182.217l-50.573,17.711l-0.037-35.33L161.331,182.217z M368.581,491.999H215.362
			V492c-8.654-4.836-42.013-24.076-74.899-51.03c-5.622-4.608-11.422-9.604-17.189-14.921c-0.596-0.736-1.295-1.385-2.075-1.928
			c-28.353-26.566-55.254-60.754-55.254-94.833c0-43.596,82.191-66.525,148.232-84.95c60.824-16.969,104.771-29.23,104.771-56.955
			c0-29.119-29.316-47.449-57.667-65.176c-24.494-15.315-49.822-31.152-49.822-50.59c0-37.95,39.529-49.838,46.403-51.617h36.944
			c-7.838,8.98-14.43,22.282-14.43,41.617c0,24.795,33.291,38.538,71.84,54.451c42.966,17.737,91.664,37.841,91.664,71.314
			c0,30.041-54.61,52.556-102.792,72.421c-55.643,22.94-108.199,44.609-108.199,83.488c0,24.91,26.81,59.719,81.96,106.415
			C334.24,466.124,353.763,481.065,368.581,491.999z M366.753,388.319l-0.025-24.565V343.92l63.59,22.139L366.753,388.319z"/>
	</g>
</g>
<g>
	<g>
		<path d="M133.5,57.333h-120c-5.523,0-10,4.478-10,10c0,5.522,4.477,10,10,10h120c5.523,0,10-4.478,10-10
			C143.5,61.811,139.023,57.333,133.5,57.333z"/>
	</g>
</g>
<g>
	<g>
		<path d="M69.5,219.333h-56c-5.523,0-10,4.478-10,10c0,5.523,4.477,10,10,10h56c5.523,0,10-4.477,10-10
			C79.5,223.811,75.023,219.333,69.5,219.333z"/>
	</g>
</g>
<g>
	<g>
		<path d="M66.5,468.333h-45c-5.523,0-10,4.478-10,10c0,5.522,4.477,10,10,10h45c5.523,0,10-4.478,10-10
			C76.5,472.811,72.023,468.333,66.5,468.333z"/>
	</g>
</g>
<g>
	<g>
		<path d="M452.5,435.333h-45c-5.522,0-10,4.478-10,10c0,5.522,4.478,10,10,10h45c5.522,0,10-4.478,10-10
			C462.5,439.811,458.023,435.333,452.5,435.333z"/>
	</g>
</g>
<g>
	<g>
		<path d="M498.5,96.333h-45c-5.522,0-10,4.478-10,10c0,5.522,4.478,10,10,10h45c5.522,0,10-4.478,10-10
			C508.5,100.811,504.023,96.333,498.5,96.333z"/>
	</g>
</g>
<g>
	<g>
		<path d="M137.167,108.668c-5.511,0-10,4.479-10,10c0,5.51,4.49,10,10,10s10-4.49,10-10
			C147.167,113.147,142.677,108.668,137.167,108.668z"/>
	</g>
</g>
<g>
	<g>
		<path d="M468.495,241.327c-5.51,0-10,4.49-10,10.011c0,5.51,4.49,10,10,10c5.52,0,10-4.49,10-10
			C478.495,245.817,474.016,241.327,468.495,241.327z"/>
	</g>
</g>
<g>
</g>
<g>
</g>
<g>
</g>
<g>
</g>
<g>
</g>
<g>
</g>
<g>
</g>
<g>
</g>
<g>
</g>
<g>
</g>
<g>
</g>
<g>
</g>
<g>
</g>
<g>
</g>
<g>
</g>
</svg>
