<svg height="512pt" viewBox="0 0 512 512" width="512pt" xmlns="http://www.w3.org/2000/svg"><path d="m377.605469 160.761719v-30h-24.527344l.824219 30zm0 0"/><path d="m271 44.535156v-44.535156h-30v43.703125c-45.550781 5.535156-81.816406 41.601563-87.648438 87.058594h199.730469c-5.59375-43.589844-39.171875-78.546875-82.082031-86.226563zm0 0"/><path d="m153.351562 130.761719h-18.957031v30h18.132813zm0 0"/><path d="m381.648438 265.644531-125.691407-70.484375-119.960937 66.507813-11.089844 7.710937h262.1875zm0 0"/><path d="m488 350.597656h-99v135.402344h-30.4375v-186.621094h-33.398438v186.621094h-30v-186.621094h-80.253906v186.621094h-30v-186.621094h-31.472656v186.621094h-30.4375v-135.402344h-99v131.402344h-24v30h512v-30h-24zm-387.386719 97.828125h-30v-27.722656h30zm0-50.003906h-30v-27.71875h30zm170.386719 87.578125h-30v-54.59375h30zm0-89.015625h-30v-27.722656h30zm0-50.003906h-30v-27.71875h30zm167.53125 101.445312h-30v-27.722656h30zm0-50.003906h-30v-27.71875h30zm0 0"/><path d="m24 320.597656h99v-30h-123v30zm0 0"/><path d="m389 290.597656v30h123v-30zm0 0"/><path d="m152.527344 218.199219 103.515625-57.4375h-103.515625zm0 0"/><path d="m353.902344 215.691406v-54.929687h-97.859375zm0 0"/></svg>