<?xml version="1.0" encoding="UTF-8" standalone="no"?>
<!-- Generator: Adobe Illustrator 18.1.1, SVG Export Plug-In . SVG Version: 6.00 Build 0)  -->

<svg
   xmlns:dc="http://purl.org/dc/elements/1.1/"
   xmlns:cc="http://creativecommons.org/ns#"
   xmlns:rdf="http://www.w3.org/1999/02/22-rdf-syntax-ns#"
   xmlns:svg="http://www.w3.org/2000/svg"
   xmlns="http://www.w3.org/2000/svg"
   xmlns:sodipodi="http://sodipodi.sourceforge.net/DTD/sodipodi-0.dtd"
   xmlns:inkscape="http://www.inkscape.org/namespaces/inkscape"
   version="1.1"
   id="Capa_1"
   x="0px"
   y="0px"
   viewBox="0 0 24 24"
   style="enable-background:new 0 0 24 24;"
   xml:space="preserve"
   sodipodi:docname="sensor.svg"
   inkscape:version="0.92.2 (5c3e80d, 2017-08-06)"><metadata
     id="metadata41"><rdf:RDF><cc:Work
         rdf:about=""><dc:format>image/svg+xml</dc:format><dc:type
           rdf:resource="http://purl.org/dc/dcmitype/StillImage" /></cc:Work></rdf:RDF></metadata><defs
     id="defs39" /><sodipodi:namedview
     pagecolor="#ffffff"
     bordercolor="#666666"
     borderopacity="1"
     objecttolerance="10"
     gridtolerance="10"
     guidetolerance="10"
     inkscape:pageopacity="0"
     inkscape:pageshadow="2"
     inkscape:window-width="640"
     inkscape:window-height="519"
     id="namedview37"
     showgrid="false"
     inkscape:zoom="9.8333333"
     inkscape:cx="12"
     inkscape:cy="12"
     inkscape:window-x="0"
     inkscape:window-y="0"
     inkscape:window-maximized="0"
     inkscape:current-layer="Capa_1" /><g
     id="g4"
     transform="rotate(90,12,12.000186)"><path
       style="fill:#030104"
       d="m 19,12 c 0,1.971 -0.838,3.862 -2.3,5.188 -0.287,0.261 -0.647,0.39 -1.008,0.39 -0.408,0 -0.814,-0.166 -1.11,-0.492 -0.557,-0.613 -0.511,-1.562 0.103,-2.118 C 15.521,14.208 16,13.127 16,12 16,10.87 15.522,9.79 14.69,9.035 14.076,8.479 14.029,7.53 14.586,6.916 15.142,6.301 16.09,6.255 16.704,6.812 18.163,8.134 19,10.025 19,12 Z M 20.514,3.534 C 19.93,2.947 18.979,2.945 18.393,3.529 17.805,4.113 17.803,5.063 18.387,5.651 20.072,7.343 21,9.598 21,12 c 0,2.396 -0.93,4.649 -2.618,6.347 -0.584,0.587 -0.582,1.537 0.006,2.121 0.292,0.291 0.675,0.437 1.058,0.437 0.385,0 0.771,-0.147 1.063,-0.442 C 22.76,18.199 24,15.194 24,12 24,8.8 22.762,5.793 20.514,3.534 Z M 12,10.187 c -1.003,0 -1.812,0.809 -1.812,1.813 0,1 0.81,1.813 1.813,1.813 1.003,0 1.812,-0.813 1.812,-1.813 0,-1.004 -0.81,-1.813 -1.813,-1.813 z M 9.419,6.914 C 8.862,6.3 7.914,6.254 7.3,6.811 5.838,8.137 5,10.029 5,12 c 0,1.977 0.837,3.867 2.297,5.188 0.287,0.26 0.647,0.388 1.006,0.388 0.409,0 0.816,-0.166 1.113,-0.493 C 9.972,16.469 9.924,15.52 9.31,14.964 8.478,14.211 8,13.131 8,12 8,10.873 8.479,9.792 9.316,9.033 9.93,8.476 9.976,7.527 9.419,6.914 Z M 3,12 C 3,9.604 3.93,7.351 5.618,5.654 6.202,5.067 6.201,4.117 5.613,3.533 5.027,2.948 4.077,2.951 3.492,3.538 1.24,5.8 0,8.806 0,12 c 0,3.199 1.238,6.206 3.486,8.466 0.293,0.295 0.678,0.442 1.063,0.442 0.383,0 0.765,-0.146 1.058,-0.437 C 6.194,19.887 6.196,18.937 5.612,18.35 3.928,16.656 3,14.401 3,12 Z"
       id="path2"
       inkscape:connector-curvature="0" /></g><g
     id="g6" /><g
     id="g8" /><g
     id="g10" /><g
     id="g12" /><g
     id="g14" /><g
     id="g16" /><g
     id="g18" /><g
     id="g20" /><g
     id="g22" /><g
     id="g24" /><g
     id="g26" /><g
     id="g28" /><g
     id="g30" /><g
     id="g32" /><g
     id="g34" /></svg>