<?xml version="1.0" encoding="iso-8859-1"?>
<!-- Generator: Adobe Illustrator 19.0.0, SVG Export Plug-In . SVG Version: 6.00 Build 0)  -->
<svg version="1.1" id="Capa_1" xmlns="http://www.w3.org/2000/svg" xmlns:xlink="http://www.w3.org/1999/xlink" x="0px" y="0px"
	 viewBox="0 0 500.907 500.907" style="enable-background:new 0 0 500.907 500.907;" xml:space="preserve">
<g>
	<g>
		<g>
			<path d="M490.363,236.115c-0.453-0.505-0.93-0.988-1.429-1.448L232.934,0l-29.013,31.573l81.92,75.093
				c-79.47,22.058-126.012,104.363-103.954,183.833c14.014,50.489,53.465,89.94,103.954,103.954l-81.92,75.093l28.8,31.36
				l256-234.667C497.493,258.375,498.228,244.887,490.363,236.115z M218.427,260.267c-0.657-6.597-0.657-13.243,0-19.84
				c1.525-17.116,14.918-30.776,32-32.64c17.28,0,32,19.627,32,42.667s-14.72,42.667-32,42.667
				C233.272,291.239,219.856,277.465,218.427,260.267z M325.094,358.4v-1.28c-23.202-0.307-45.671-8.171-64-22.4
				c38.996-8.774,66.013-44.347,64-84.267c2.013-39.92-25.004-75.493-64-84.267c18.329-14.229,40.798-22.093,64-22.4v-1.28
				l117.76,107.947L325.094,358.4z"/>
			<circle cx="154.427" cy="143.787" r="21.333"/>
			<circle cx="90.427" cy="101.12" r="21.333"/>
			<circle cx="26.427" cy="58.453" r="21.333"/>
			<circle cx="154.427" cy="357.12" r="21.333"/>
			<circle cx="90.427" cy="399.787" r="21.333"/>
			<circle cx="26.427" cy="442.453" r="21.333"/>
			<circle cx="26.427" cy="250.453" r="21.333"/>
			<circle cx="111.761" cy="250.453" r="21.333"/>
		</g>
	</g>
</g>
<g>
</g>
<g>
</g>
<g>
</g>
<g>
</g>
<g>
</g>
<g>
</g>
<g>
</g>
<g>
</g>
<g>
</g>
<g>
</g>
<g>
</g>
<g>
</g>
<g>
</g>
<g>
</g>
<g>
</g>
</svg>
