<?xml version="1.0" encoding="iso-8859-1"?>
<!-- Generator: Adobe Illustrator 18.0.0, SVG Export Plug-In . SVG Version: 6.00 Build 0)  -->
<!DOCTYPE svg PUBLIC "-//W3C//DTD SVG 1.1//EN" "http://www.w3.org/Graphics/SVG/1.1/DTD/svg11.dtd">
<svg version="1.1" id="Capa_1" xmlns="http://www.w3.org/2000/svg" xmlns:xlink="http://www.w3.org/1999/xlink" x="0px" y="0px"
	 viewBox="0 0 312 312" style="enable-background:new 0 0 312 312;" xml:space="preserve">
<g>
	<path d="M303,147h-23.992C274.599,86.15,225.85,37.401,165,32.992V9c0-4.971-4.029-9-9-9s-9,4.029-9,9v23.992
		C86.15,37.401,37.401,86.15,32.992,147H9c-4.971,0-9,4.029-9,9s4.029,9,9,9h23.992C37.401,225.85,86.15,274.599,147,279.008V303
		c0,4.971,4.029,9,9,9s9-4.029,9-9v-23.992c60.85-4.41,109.599-53.158,114.008-114.008H303c4.971,0,9-4.029,9-9S307.971,147,303,147
		z M165,260.95v-23.274c0-4.971-4.029-9-9-9s-9,4.029-9,9v23.274C96.081,256.62,55.38,215.919,51.05,165h23.274c4.971,0,9-4.029,9-9
		s-4.029-9-9-9H51.05C55.38,96.081,96.081,55.38,147,51.05v23.274c0,4.971,4.029,9,9,9s9-4.029,9-9V51.05
		c50.919,4.329,91.62,45.031,95.95,95.95h-23.274c-4.971,0-9,4.029-9,9s4.029,9,9,9h23.274
		C256.62,215.919,215.919,256.62,165,260.95z"/>
	<path d="M183.307,128.693c-3.515-3.515-9.213-3.515-12.728,0L156,143.272l-14.579-14.579c-3.515-3.515-9.213-3.515-12.728,0
		c-3.515,3.515-3.515,9.213,0,12.728L143.272,156l-14.579,14.579c-3.515,3.515-3.515,9.213,0,12.728
		c1.757,1.757,4.061,2.636,6.364,2.636s4.606-0.879,6.364-2.636L156,168.728l14.579,14.579c1.757,1.757,4.061,2.636,6.364,2.636
		s4.606-0.879,6.364-2.636c3.515-3.515,3.515-9.213,0-12.728L168.728,156l14.579-14.579
		C186.822,137.906,186.822,132.208,183.307,128.693z"/>
</g>
<g>
</g>
<g>
</g>
<g>
</g>
<g>
</g>
<g>
</g>
<g>
</g>
<g>
</g>
<g>
</g>
<g>
</g>
<g>
</g>
<g>
</g>
<g>
</g>
<g>
</g>
<g>
</g>
<g>
</g>
</svg>
