<?xml version="1.0" encoding="UTF-8" standalone="no"?>
<!-- Created with Inkscape (http://www.inkscape.org/) -->

<svg
   xmlns:dc="http://purl.org/dc/elements/1.1/"
   xmlns:cc="http://creativecommons.org/ns#"
   xmlns:rdf="http://www.w3.org/1999/02/22-rdf-syntax-ns#"
   xmlns:svg="http://www.w3.org/2000/svg"
   xmlns="http://www.w3.org/2000/svg"
   xmlns:sodipodi="http://sodipodi.sourceforge.net/DTD/sodipodi-0.dtd"
   xmlns:inkscape="http://www.inkscape.org/namespaces/inkscape"
   version="1.1"
   id="svg2"
   width="140.66667"
   height="122.66667"
   viewBox="0 0 140.66667 122.66667"
   sodipodi:docname="wall02.svg"
   inkscape:version="0.92.2 (5c3e80d, 2017-08-06)">
  <metadata
     id="metadata8">
    <rdf:RDF>
      <cc:Work
         rdf:about="">
        <dc:format>image/svg+xml</dc:format>
        <dc:type
           rdf:resource="http://purl.org/dc/dcmitype/StillImage" />
        <dc:title />
      </cc:Work>
    </rdf:RDF>
  </metadata>
  <defs
     id="defs6" />
  <sodipodi:namedview
     pagecolor="#ffffff"
     bordercolor="#666666"
     borderopacity="1"
     objecttolerance="10"
     gridtolerance="10"
     guidetolerance="10"
     inkscape:pageopacity="0"
     inkscape:pageshadow="2"
     inkscape:window-width="1920"
     inkscape:window-height="986"
     id="namedview4"
     showgrid="false"
     inkscape:zoom="1.923913"
     inkscape:cx="70.333337"
     inkscape:cy="61.333337"
     inkscape:window-x="-11"
     inkscape:window-y="-11"
     inkscape:window-maximized="1"
     inkscape:current-layer="svg2" />
  <path
     style="fill:#000000;stroke-width:0.66666669"
     d="m 0,118.46667 c 0,-1.21 0.36000001,-2.56 0.80000002,-3 0.62222218,-0.62222 0.62222218,-0.8 0,-0.8 C 0.33015874,114.66667 0,113.70371 0,112.33334 0,110.44445 0.25396826,110 1.3333334,110 2.6616315,110 2.6615738,109.995 1.3180544,108.65139 0.24690723,107.58024 0.11457244,107.0316 0.67484388,105.98472 1.3698769,104.68604 2.3058897,104.66667 64.356791,104.66667 H 127.33334 V 53.387859 c 0,-28.203344 0.18209,-51.7533452 0.40466,-52.333334 C 128.06725,0.19650137 129.30952,0 134.40466,0 h 6.26201 V 60.333335 120.66667 H 70.333335 0 Z"
     id="path7"
     inkscape:connector-curvature="0" />
</svg>
